<svg xmlns="http://www.w3.org/2000/svg" xmlns:xlink="http://www.w3.org/1999/xlink" width="160" zoomAndPan="magnify" viewBox="0 0 120 48" height="64" preserveAspectRatio="xMidYMid meet" version="1.0"><defs><g/><clipPath id="a1de92c34c"><path d="M 0.429688 5 L 7 5 L 7 16 L 0.429688 16 Z M 0.429688 5 " clip-rule="nonzero"/></clipPath><clipPath id="14a7d38126"><rect x="0" width="64" y="0" height="21"/></clipPath><clipPath id="404a747655"><rect x="0" width="37" y="0" height="12"/></clipPath><clipPath id="b0e5493051"><path d="M 2.378906 1.761719 L 33.71875 1.761719 L 33.71875 34.824219 L 2.378906 34.824219 Z M 2.378906 1.761719 " clip-rule="nonzero"/></clipPath><clipPath id="e363d5833b"><path d="M 18.902344 1.773438 C 20.207031 1.851562 21.351562 2.582031 21.492188 3.472656 C 21.617188 4.480469 20.539062 5.300781 19.082031 5.238281 C 17.601562 5.214844 16.429688 4.3125 16.457031 3.292969 C 16.488281 2.390625 17.585938 1.742188 18.902344 1.773438 M 23.378906 32.136719 C 24.4375 31.964844 25.09375 32.398438 24.867188 33.050781 C 24.644531 33.613281 23.695312 34.203125 22.757812 34.402344 C 21.769531 34.574219 21.039062 34.273438 21.15625 33.679688 C 21.265625 32.996094 22.265625 32.285156 23.378906 32.136719 Z M 27.527344 25.15625 C 27.722656 25.035156 27.921875 24.925781 28.121094 24.84375 C 28.859375 24.183594 29.445312 23.238281 29.75 22.199219 C 30.0625 21.046875 30.027344 19.859375 29.664062 18.878906 C 29.664062 18.890625 29.664062 18.890625 29.667969 18.890625 C 29.019531 17.992188 28.714844 16.699219 28.960938 15.433594 C 29.285156 13.519531 30.699219 12.585938 32.027344 13.265625 C 33.148438 13.917969 33.839844 15.753906 33.671875 17.441406 C 33.507812 18.566406 32.984375 19.441406 32.300781 19.800781 C 32.304688 19.800781 32.304688 19.800781 32.304688 19.800781 C 31.710938 20.417969 31.199219 21.386719 30.898438 22.480469 C 30.726562 23.070312 30.632812 23.65625 30.617188 24.195312 C 30.542969 25.402344 30.917969 25.246094 31.035156 26.089844 C 31.109375 26.804688 30.84375 27.703125 30.277344 28.550781 C 29.472656 29.707031 28.179688 30.597656 27.058594 30.65625 C 24.621094 30.578125 25.929688 28.574219 24.71875 27.207031 C 24.421875 26.863281 24.035156 26.5625 23.582031 26.328125 C 23.042969 26.058594 22.445312 25.886719 21.824219 25.828125 C 19.644531 25.597656 18.085938 26.742188 17.480469 28.730469 C 17.316406 29.238281 17.273438 29.738281 17.328125 30.210938 C 17.363281 30.570312 17.777344 31.46875 17.777344 31.46875 C 18.539062 32.085938 18.84375 32.898438 18.503906 33.628906 C 17.988281 34.589844 16.304688 35.027344 14.648438 34.726562 C 12.988281 34.324219 11.773438 33.234375 11.972656 32.167969 C 12.078125 31.683594 12.417969 31.277344 12.921875 30.988281 C 13.804688 30.457031 14.050781 30.796875 14.960938 29.859375 C 15.34375 29.4375 15.640625 28.917969 15.8125 28.332031 C 16.773438 24.882812 13.742188 24.519531 14.5 21.488281 C 15.054688 19.339844 17.269531 18.046875 19.429688 18.628906 C 19.433594 18.632812 19.433594 18.632812 19.4375 18.632812 C 19.804688 18.722656 20.164062 18.867188 20.503906 19.0625 C 23.292969 20.695312 21.226562 23.082031 24.488281 24.875 C 25.453125 25.382812 26.546875 25.476562 27.539062 25.152344 C 27.53125 25.15625 27.53125 25.15625 27.527344 25.15625 Z M 12.433594 12.003906 C 14.046875 12.886719 15.484375 12.742188 16.730469 11.59375 C 17.964844 10.476562 17.457031 10.335938 18.273438 9.328125 C 18.6875 8.824219 19.296875 8.449219 20.277344 8.234375 C 24.679688 7.457031 26.988281 14.402344 22.472656 15.574219 C 21.273438 15.886719 20.398438 15.734375 19.648438 15.296875 C 18.503906 14.632812 19.03125 14.53125 17.507812 14.128906 C 15.789062 13.683594 14.484375 14.300781 13.449219 15.988281 C 13.050781 17.351562 11.996094 18.421875 10.699219 18.765625 C 10.695312 18.765625 10.695312 18.765625 10.695312 18.765625 C 8.757812 19.308594 6.882812 18.066406 6.449219 16.039062 C 6.207031 14.773438 6.582031 13.472656 7.355469 12.527344 C 8.574219 11.105469 9.109375 10.8125 9.390625 8.753906 C 9.5 8.074219 9.453125 7.453125 9.246094 6.957031 C 8.933594 6.179688 8.730469 6.367188 8.296875 5.9375 C 7.917969 5.574219 7.785156 5.058594 7.984375 4.449219 C 8.398438 3.347656 9.914062 2.257812 11.433594 1.894531 C 13.0625 1.617188 14.296875 2.253906 14.164062 3.449219 C 14.109375 3.925781 13.882812 4.402344 13.503906 4.839844 C 12.660156 5.867188 12.253906 5.527344 11.484375 6.898438 C 11.199219 7.425781 11.015625 8.007812 10.960938 8.609375 C 10.835938 10.320312 11.332031 11.003906 12.433594 12.003906 Z M 5.636719 21.25 C 7.292969 21.339844 8.824219 23.027344 8.953125 24.953125 C 9.128906 26.777344 7.929688 27.960938 6.382812 27.683594 C 4.984375 27.355469 3.710938 25.835938 3.417969 24.203125 C 3.203125 22.492188 4.144531 21.132812 5.636719 21.25 Z M 4.382812 8.148438 C 5.304688 7.875 5.933594 8.589844 5.726562 9.796875 C 5.550781 11.0625 4.5625 12.25 3.578125 12.40625 C 2.703125 12.570312 2.230469 11.75 2.464844 10.597656 C 2.730469 9.519531 3.5625 8.441406 4.382812 8.148438 Z M 27.851562 5.910156 C 28.699219 6.148438 29.550781 7.023438 29.78125 7.890625 C 30 8.828125 29.46875 9.46875 28.558594 9.296875 C 27.589844 9.144531 26.644531 8.175781 26.488281 7.179688 C 26.324219 6.242188 26.941406 5.683594 27.851562 5.910156 Z M 27.851562 5.910156 " clip-rule="nonzero"/></clipPath><linearGradient x1="435.921381" gradientTransform="matrix(0.0734011, 0, 0, -0.074037, 2.23104, 100.842963)" y1="1331.195244" x2="-4.737458" gradientUnits="userSpaceOnUse" y2="898.55754" id="075f0dbed9"><stop stop-opacity="1" stop-color="rgb(5.099487%, 93.728638%, 96.469116%)" offset="0"/><stop stop-opacity="1" stop-color="rgb(5.099487%, 93.728638%, 96.469116%)" offset="0.125"/><stop stop-opacity="1" stop-color="rgb(5.099487%, 93.728638%, 96.469116%)" offset="0.1875"/><stop stop-opacity="1" stop-color="rgb(5.099487%, 93.728638%, 96.469116%)" offset="0.21875"/><stop stop-opacity="1" stop-color="rgb(5.099487%, 93.728638%, 96.469116%)" offset="0.226562"/><stop stop-opacity="1" stop-color="rgb(5.479431%, 93.35022%, 96.473694%)" offset="0.230469"/><stop stop-opacity="1" stop-color="rgb(5.859375%, 92.971802%, 96.478271%)" offset="0.234375"/><stop stop-opacity="1" stop-color="rgb(6.506348%, 92.327881%, 96.485901%)" offset="0.238281"/><stop stop-opacity="1" stop-color="rgb(7.15332%, 91.68396%, 96.495056%)" offset="0.242188"/><stop stop-opacity="1" stop-color="rgb(7.798767%, 91.040039%, 96.502686%)" offset="0.246094"/><stop stop-opacity="1" stop-color="rgb(8.44574%, 90.396118%, 96.511841%)" offset="0.25"/><stop stop-opacity="1" stop-color="rgb(9.092712%, 89.750671%, 96.51947%)" offset="0.253906"/><stop stop-opacity="1" stop-color="rgb(9.739685%, 89.10675%, 96.5271%)" offset="0.257812"/><stop stop-opacity="1" stop-color="rgb(10.386658%, 88.46283%, 96.534729%)" offset="0.261719"/><stop stop-opacity="1" stop-color="rgb(11.03363%, 87.818909%, 96.543884%)" offset="0.265625"/><stop stop-opacity="1" stop-color="rgb(11.680603%, 87.174988%, 96.551514%)" offset="0.269531"/><stop stop-opacity="1" stop-color="rgb(12.327576%, 86.531067%, 96.560669%)" offset="0.273437"/><stop stop-opacity="1" stop-color="rgb(12.973022%, 85.88562%, 96.568298%)" offset="0.277344"/><stop stop-opacity="1" stop-color="rgb(13.619995%, 85.241699%, 96.575928%)" offset="0.28125"/><stop stop-opacity="1" stop-color="rgb(14.266968%, 84.597778%, 96.583557%)" offset="0.285156"/><stop stop-opacity="1" stop-color="rgb(14.91394%, 83.953857%, 96.592712%)" offset="0.289062"/><stop stop-opacity="1" stop-color="rgb(15.560913%, 83.309937%, 96.600342%)" offset="0.292969"/><stop stop-opacity="1" stop-color="rgb(16.207886%, 82.666016%, 96.609497%)" offset="0.296875"/><stop stop-opacity="1" stop-color="rgb(16.854858%, 82.020569%, 96.617126%)" offset="0.300781"/><stop stop-opacity="1" stop-color="rgb(17.501831%, 81.376648%, 96.624756%)" offset="0.304687"/><stop stop-opacity="1" stop-color="rgb(18.148804%, 80.732727%, 96.632385%)" offset="0.308594"/><stop stop-opacity="1" stop-color="rgb(18.795776%, 80.088806%, 96.641541%)" offset="0.3125"/><stop stop-opacity="1" stop-color="rgb(19.441223%, 79.444885%, 96.64917%)" offset="0.316406"/><stop stop-opacity="1" stop-color="rgb(20.088196%, 78.800964%, 96.658325%)" offset="0.320312"/><stop stop-opacity="1" stop-color="rgb(20.735168%, 78.155518%, 96.665955%)" offset="0.324219"/><stop stop-opacity="1" stop-color="rgb(21.382141%, 77.511597%, 96.673584%)" offset="0.328125"/><stop stop-opacity="1" stop-color="rgb(22.029114%, 76.867676%, 96.681213%)" offset="0.332031"/><stop stop-opacity="1" stop-color="rgb(22.676086%, 76.223755%, 96.690369%)" offset="0.335938"/><stop stop-opacity="1" stop-color="rgb(23.323059%, 75.579834%, 96.697998%)" offset="0.339844"/><stop stop-opacity="1" stop-color="rgb(23.970032%, 74.935913%, 96.707153%)" offset="0.34375"/><stop stop-opacity="1" stop-color="rgb(24.615479%, 74.290466%, 96.714783%)" offset="0.347656"/><stop stop-opacity="1" stop-color="rgb(25.262451%, 73.646545%, 96.722412%)" offset="0.351562"/><stop stop-opacity="1" stop-color="rgb(25.909424%, 73.002625%, 96.730042%)" offset="0.355469"/><stop stop-opacity="1" stop-color="rgb(26.556396%, 72.358704%, 96.739197%)" offset="0.359375"/><stop stop-opacity="1" stop-color="rgb(27.203369%, 71.714783%, 96.746826%)" offset="0.363281"/><stop stop-opacity="1" stop-color="rgb(27.850342%, 71.070862%, 96.755981%)" offset="0.367187"/><stop stop-opacity="1" stop-color="rgb(28.497314%, 70.425415%, 96.763611%)" offset="0.371094"/><stop stop-opacity="1" stop-color="rgb(29.144287%, 69.781494%, 96.77124%)" offset="0.375"/><stop stop-opacity="1" stop-color="rgb(29.789734%, 69.137573%, 96.77887%)" offset="0.378906"/><stop stop-opacity="1" stop-color="rgb(30.436707%, 68.493652%, 96.788025%)" offset="0.382812"/><stop stop-opacity="1" stop-color="rgb(31.083679%, 67.849731%, 96.795654%)" offset="0.386719"/><stop stop-opacity="1" stop-color="rgb(31.730652%, 67.205811%, 96.80481%)" offset="0.390625"/><stop stop-opacity="1" stop-color="rgb(32.377625%, 66.560364%, 96.812439%)" offset="0.394531"/><stop stop-opacity="1" stop-color="rgb(33.024597%, 65.916443%, 96.821594%)" offset="0.398438"/><stop stop-opacity="1" stop-color="rgb(33.67157%, 65.272522%, 96.829224%)" offset="0.402344"/><stop stop-opacity="1" stop-color="rgb(34.318542%, 64.628601%, 96.836853%)" offset="0.40625"/><stop stop-opacity="1" stop-color="rgb(34.965515%, 63.98468%, 96.844482%)" offset="0.410156"/><stop stop-opacity="1" stop-color="rgb(35.612488%, 63.340759%, 96.853638%)" offset="0.414062"/><stop stop-opacity="1" stop-color="rgb(36.257935%, 62.695312%, 96.861267%)" offset="0.417969"/><stop stop-opacity="1" stop-color="rgb(36.904907%, 62.051392%, 96.870422%)" offset="0.421875"/><stop stop-opacity="1" stop-color="rgb(37.55188%, 61.407471%, 96.878052%)" offset="0.425781"/><stop stop-opacity="1" stop-color="rgb(38.198853%, 60.76355%, 96.885681%)" offset="0.429688"/><stop stop-opacity="1" stop-color="rgb(38.845825%, 60.119629%, 96.893311%)" offset="0.433594"/><stop stop-opacity="1" stop-color="rgb(39.492798%, 59.475708%, 96.902466%)" offset="0.4375"/><stop stop-opacity="1" stop-color="rgb(40.139771%, 58.830261%, 96.910095%)" offset="0.441406"/><stop stop-opacity="1" stop-color="rgb(40.786743%, 58.18634%, 96.91925%)" offset="0.445312"/><stop stop-opacity="1" stop-color="rgb(41.43219%, 57.542419%, 96.92688%)" offset="0.449219"/><stop stop-opacity="1" stop-color="rgb(42.079163%, 56.898499%, 96.934509%)" offset="0.453125"/><stop stop-opacity="1" stop-color="rgb(42.726135%, 56.254578%, 96.942139%)" offset="0.457031"/><stop stop-opacity="1" stop-color="rgb(43.373108%, 55.610657%, 96.951294%)" offset="0.460937"/><stop stop-opacity="1" stop-color="rgb(44.020081%, 54.96521%, 96.958923%)" offset="0.464844"/><stop stop-opacity="1" stop-color="rgb(44.667053%, 54.321289%, 96.968079%)" offset="0.46875"/><stop stop-opacity="1" stop-color="rgb(45.314026%, 53.677368%, 96.975708%)" offset="0.472656"/><stop stop-opacity="1" stop-color="rgb(45.960999%, 53.033447%, 96.983337%)" offset="0.476562"/><stop stop-opacity="1" stop-color="rgb(46.607971%, 52.389526%, 96.990967%)" offset="0.480469"/><stop stop-opacity="1" stop-color="rgb(47.254944%, 51.745605%, 97.000122%)" offset="0.484375"/><stop stop-opacity="1" stop-color="rgb(47.900391%, 51.100159%, 97.007751%)" offset="0.488281"/><stop stop-opacity="1" stop-color="rgb(48.547363%, 50.456238%, 97.016907%)" offset="0.492188"/><stop stop-opacity="1" stop-color="rgb(49.194336%, 49.812317%, 97.024536%)" offset="0.496094"/><stop stop-opacity="1" stop-color="rgb(49.841309%, 49.168396%, 97.032166%)" offset="0.5"/><stop stop-opacity="1" stop-color="rgb(50.488281%, 48.524475%, 97.039795%)" offset="0.503906"/><stop stop-opacity="1" stop-color="rgb(51.135254%, 47.880554%, 97.04895%)" offset="0.507812"/><stop stop-opacity="1" stop-color="rgb(51.782227%, 47.235107%, 97.05658%)" offset="0.511719"/><stop stop-opacity="1" stop-color="rgb(52.429199%, 46.591187%, 97.065735%)" offset="0.515625"/><stop stop-opacity="1" stop-color="rgb(53.074646%, 45.947266%, 97.073364%)" offset="0.519531"/><stop stop-opacity="1" stop-color="rgb(53.721619%, 45.303345%, 97.080994%)" offset="0.523438"/><stop stop-opacity="1" stop-color="rgb(54.368591%, 44.659424%, 97.088623%)" offset="0.527344"/><stop stop-opacity="1" stop-color="rgb(55.015564%, 44.015503%, 97.097778%)" offset="0.53125"/><stop stop-opacity="1" stop-color="rgb(55.662537%, 43.370056%, 97.105408%)" offset="0.535156"/><stop stop-opacity="1" stop-color="rgb(56.309509%, 42.726135%, 97.114563%)" offset="0.539062"/><stop stop-opacity="1" stop-color="rgb(56.956482%, 42.082214%, 97.122192%)" offset="0.542969"/><stop stop-opacity="1" stop-color="rgb(57.603455%, 41.438293%, 97.129822%)" offset="0.546875"/><stop stop-opacity="1" stop-color="rgb(58.250427%, 40.794373%, 97.137451%)" offset="0.550781"/><stop stop-opacity="1" stop-color="rgb(58.8974%, 40.150452%, 97.146606%)" offset="0.554687"/><stop stop-opacity="1" stop-color="rgb(59.542847%, 39.505005%, 97.154236%)" offset="0.558594"/><stop stop-opacity="1" stop-color="rgb(60.189819%, 38.861084%, 97.163391%)" offset="0.5625"/><stop stop-opacity="1" stop-color="rgb(60.836792%, 38.217163%, 97.171021%)" offset="0.566406"/><stop stop-opacity="1" stop-color="rgb(61.483765%, 37.573242%, 97.17865%)" offset="0.570312"/><stop stop-opacity="1" stop-color="rgb(62.130737%, 36.929321%, 97.186279%)" offset="0.574219"/><stop stop-opacity="1" stop-color="rgb(62.77771%, 36.2854%, 97.195435%)" offset="0.578125"/><stop stop-opacity="1" stop-color="rgb(63.424683%, 35.639954%, 97.203064%)" offset="0.582031"/><stop stop-opacity="1" stop-color="rgb(64.071655%, 34.996033%, 97.212219%)" offset="0.585937"/><stop stop-opacity="1" stop-color="rgb(64.717102%, 34.352112%, 97.219849%)" offset="0.589844"/><stop stop-opacity="1" stop-color="rgb(65.364075%, 33.708191%, 97.227478%)" offset="0.59375"/><stop stop-opacity="1" stop-color="rgb(66.011047%, 33.06427%, 97.235107%)" offset="0.597656"/><stop stop-opacity="1" stop-color="rgb(66.65802%, 32.420349%, 97.244263%)" offset="0.601562"/><stop stop-opacity="1" stop-color="rgb(67.304993%, 31.774902%, 97.251892%)" offset="0.605469"/><stop stop-opacity="1" stop-color="rgb(67.951965%, 31.130981%, 97.261047%)" offset="0.609375"/><stop stop-opacity="1" stop-color="rgb(68.598938%, 30.487061%, 97.268677%)" offset="0.613281"/><stop stop-opacity="1" stop-color="rgb(69.245911%, 29.84314%, 97.276306%)" offset="0.617188"/><stop stop-opacity="1" stop-color="rgb(69.892883%, 29.199219%, 97.283936%)" offset="0.621094"/><stop stop-opacity="1" stop-color="rgb(70.539856%, 28.555298%, 97.293091%)" offset="0.625"/><stop stop-opacity="1" stop-color="rgb(71.185303%, 27.909851%, 97.30072%)" offset="0.628906"/><stop stop-opacity="1" stop-color="rgb(71.832275%, 27.26593%, 97.309875%)" offset="0.632812"/><stop stop-opacity="1" stop-color="rgb(72.479248%, 26.622009%, 97.317505%)" offset="0.636719"/><stop stop-opacity="1" stop-color="rgb(73.126221%, 25.978088%, 97.325134%)" offset="0.640625"/><stop stop-opacity="1" stop-color="rgb(73.773193%, 25.334167%, 97.332764%)" offset="0.644531"/><stop stop-opacity="1" stop-color="rgb(74.420166%, 24.690247%, 97.341919%)" offset="0.648438"/><stop stop-opacity="1" stop-color="rgb(75.067139%, 24.0448%, 97.349548%)" offset="0.652344"/><stop stop-opacity="1" stop-color="rgb(75.714111%, 23.400879%, 97.358704%)" offset="0.65625"/><stop stop-opacity="1" stop-color="rgb(76.359558%, 22.756958%, 97.366333%)" offset="0.660156"/><stop stop-opacity="1" stop-color="rgb(77.006531%, 22.113037%, 97.373962%)" offset="0.664062"/><stop stop-opacity="1" stop-color="rgb(77.653503%, 21.469116%, 97.381592%)" offset="0.667969"/><stop stop-opacity="1" stop-color="rgb(78.300476%, 20.825195%, 97.390747%)" offset="0.671875"/><stop stop-opacity="1" stop-color="rgb(78.947449%, 20.179749%, 97.398376%)" offset="0.675781"/><stop stop-opacity="1" stop-color="rgb(79.594421%, 19.535828%, 97.407532%)" offset="0.679687"/><stop stop-opacity="1" stop-color="rgb(80.241394%, 18.891907%, 97.415161%)" offset="0.683594"/><stop stop-opacity="1" stop-color="rgb(80.888367%, 18.247986%, 97.422791%)" offset="0.6875"/><stop stop-opacity="1" stop-color="rgb(81.533813%, 17.604065%, 97.43042%)" offset="0.691406"/><stop stop-opacity="1" stop-color="rgb(82.180786%, 16.960144%, 97.439575%)" offset="0.695312"/><stop stop-opacity="1" stop-color="rgb(82.827759%, 16.314697%, 97.447205%)" offset="0.699219"/><stop stop-opacity="1" stop-color="rgb(83.474731%, 15.670776%, 97.45636%)" offset="0.703125"/><stop stop-opacity="1" stop-color="rgb(84.121704%, 15.026855%, 97.463989%)" offset="0.707031"/><stop stop-opacity="1" stop-color="rgb(84.768677%, 14.382935%, 97.471619%)" offset="0.710938"/><stop stop-opacity="1" stop-color="rgb(85.415649%, 13.739014%, 97.479248%)" offset="0.714844"/><stop stop-opacity="1" stop-color="rgb(86.062622%, 13.095093%, 97.488403%)" offset="0.71875"/><stop stop-opacity="1" stop-color="rgb(86.709595%, 12.449646%, 97.496033%)" offset="0.722656"/><stop stop-opacity="1" stop-color="rgb(87.356567%, 11.805725%, 97.505188%)" offset="0.726562"/><stop stop-opacity="1" stop-color="rgb(88.002014%, 11.161804%, 97.512817%)" offset="0.730469"/><stop stop-opacity="1" stop-color="rgb(88.648987%, 10.517883%, 97.520447%)" offset="0.734375"/><stop stop-opacity="1" stop-color="rgb(89.295959%, 9.873962%, 97.528076%)" offset="0.738281"/><stop stop-opacity="1" stop-color="rgb(89.942932%, 9.230042%, 97.537231%)" offset="0.742187"/><stop stop-opacity="1" stop-color="rgb(90.589905%, 8.584595%, 97.544861%)" offset="0.746094"/><stop stop-opacity="1" stop-color="rgb(91.236877%, 7.940674%, 97.554016%)" offset="0.75"/><stop stop-opacity="1" stop-color="rgb(91.88385%, 7.296753%, 97.561646%)" offset="0.753906"/><stop stop-opacity="1" stop-color="rgb(92.530823%, 6.652832%, 97.570801%)" offset="0.757812"/><stop stop-opacity="1" stop-color="rgb(93.17627%, 6.008911%, 97.57843%)" offset="0.761719"/><stop stop-opacity="1" stop-color="rgb(93.823242%, 5.36499%, 97.58606%)" offset="0.765625"/><stop stop-opacity="1" stop-color="rgb(94.470215%, 4.719543%, 97.593689%)" offset="0.769531"/><stop stop-opacity="1" stop-color="rgb(95.117188%, 4.075623%, 97.602844%)" offset="0.773437"/><stop stop-opacity="1" stop-color="rgb(95.76416%, 3.431702%, 97.610474%)" offset="0.777344"/><stop stop-opacity="1" stop-color="rgb(96.411133%, 2.787781%, 97.619629%)" offset="0.78125"/><stop stop-opacity="1" stop-color="rgb(97.058105%, 2.14386%, 97.627258%)" offset="0.785156"/><stop stop-opacity="1" stop-color="rgb(97.705078%, 1.499939%, 97.634888%)" offset="0.789062"/><stop stop-opacity="1" stop-color="rgb(98.262024%, 0.944519%, 97.640991%)" offset="0.792969"/><stop stop-opacity="1" stop-color="rgb(98.81897%, 0.389099%, 97.648621%)" offset="0.796875"/><stop stop-opacity="1" stop-color="rgb(98.81897%, 0.389099%, 97.648621%)" offset="0.8125"/><stop stop-opacity="1" stop-color="rgb(98.81897%, 0.389099%, 97.648621%)" offset="0.875"/><stop stop-opacity="1" stop-color="rgb(98.81897%, 0.389099%, 97.648621%)" offset="1"/></linearGradient></defs><g transform="matrix(1, 0, 0, 1, 37, 3)"><g clip-path="url(#14a7d38126)"><g clip-path="url(#a1de92c34c)"><g fill="#ffffff" fill-opacity="1"><g transform="translate(0.697904, 15.897474)"><g><path d="M 5.359375 -8.59375 L 5.359375 -6.8125 L 0.140625 -6.8125 L 0.140625 -8.59375 Z M 1.40625 -10.703125 L 3.71875 -10.703125 L 3.71875 -2.546875 C 3.71875 -2.265625 3.773438 -2.0625 3.890625 -1.9375 C 4.015625 -1.8125 4.222656 -1.75 4.515625 -1.75 C 4.617188 -1.75 4.75 -1.757812 4.90625 -1.78125 C 5.070312 -1.800781 5.203125 -1.816406 5.296875 -1.828125 L 5.546875 -0.0625 C 5.316406 -0.0078125 5.070312 0.0234375 4.8125 0.046875 C 4.5625 0.078125 4.316406 0.09375 4.078125 0.09375 C 3.191406 0.09375 2.523438 -0.109375 2.078125 -0.515625 C 1.628906 -0.921875 1.40625 -1.515625 1.40625 -2.296875 Z M 1.40625 -10.703125 "/></g></g></g></g><g fill="#ffffff" fill-opacity="1"><g transform="translate(6.543126, 15.897474)"><g><path d="M 3.40625 0.15625 C 2.851562 0.15625 2.359375 0.0625 1.921875 -0.125 C 1.484375 -0.3125 1.140625 -0.597656 0.890625 -0.984375 C 0.640625 -1.367188 0.515625 -1.84375 0.515625 -2.40625 C 0.515625 -2.882812 0.601562 -3.285156 0.78125 -3.609375 C 0.957031 -3.929688 1.195312 -4.191406 1.5 -4.390625 C 1.8125 -4.585938 2.160156 -4.734375 2.546875 -4.828125 C 2.941406 -4.929688 3.359375 -5.003906 3.796875 -5.046875 C 4.296875 -5.097656 4.695312 -5.144531 5 -5.1875 C 5.3125 -5.238281 5.535156 -5.3125 5.671875 -5.40625 C 5.816406 -5.5 5.890625 -5.640625 5.890625 -5.828125 L 5.890625 -5.859375 C 5.890625 -6.097656 5.832031 -6.300781 5.71875 -6.46875 C 5.613281 -6.632812 5.457031 -6.765625 5.25 -6.859375 C 5.050781 -6.953125 4.804688 -7 4.515625 -7 C 4.222656 -7 3.96875 -6.953125 3.75 -6.859375 C 3.53125 -6.765625 3.347656 -6.640625 3.203125 -6.484375 C 3.066406 -6.335938 2.972656 -6.171875 2.921875 -5.984375 L 0.78125 -6.25 C 0.894531 -6.769531 1.117188 -7.210938 1.453125 -7.578125 C 1.796875 -7.941406 2.226562 -8.222656 2.75 -8.421875 C 3.28125 -8.617188 3.878906 -8.71875 4.546875 -8.71875 C 5.035156 -8.71875 5.5 -8.660156 5.9375 -8.546875 C 6.375 -8.429688 6.765625 -8.253906 7.109375 -8.015625 C 7.453125 -7.773438 7.71875 -7.472656 7.90625 -7.109375 C 8.101562 -6.742188 8.203125 -6.304688 8.203125 -5.796875 L 8.203125 0 L 5.984375 0 L 5.984375 -1.203125 L 5.921875 -1.203125 C 5.773438 -0.929688 5.585938 -0.691406 5.359375 -0.484375 C 5.128906 -0.273438 4.851562 -0.113281 4.53125 0 C 4.207031 0.101562 3.832031 0.15625 3.40625 0.15625 Z M 4.046875 -1.46875 C 4.421875 -1.46875 4.742188 -1.539062 5.015625 -1.6875 C 5.296875 -1.832031 5.515625 -2.023438 5.671875 -2.265625 C 5.828125 -2.503906 5.90625 -2.78125 5.90625 -3.09375 L 5.90625 -4 C 5.832031 -3.957031 5.726562 -3.914062 5.59375 -3.875 C 5.46875 -3.832031 5.320312 -3.796875 5.15625 -3.765625 C 4.988281 -3.734375 4.816406 -3.703125 4.640625 -3.671875 C 4.472656 -3.648438 4.320312 -3.628906 4.1875 -3.609375 C 3.90625 -3.566406 3.65625 -3.5 3.4375 -3.40625 C 3.21875 -3.320312 3.046875 -3.203125 2.921875 -3.046875 C 2.804688 -2.890625 2.75 -2.695312 2.75 -2.46875 C 2.75 -2.25 2.804688 -2.066406 2.921875 -1.921875 C 3.035156 -1.773438 3.1875 -1.660156 3.375 -1.578125 C 3.570312 -1.503906 3.796875 -1.46875 4.046875 -1.46875 Z M 4.046875 -1.46875 "/></g></g></g><g fill="#ffffff" fill-opacity="1"><g transform="translate(15.696219, 15.897474)"><g><path d="M 4.390625 0.171875 C 3.691406 0.171875 3.070312 0.0703125 2.53125 -0.125 C 1.988281 -0.332031 1.546875 -0.628906 1.203125 -1.015625 C 0.867188 -1.410156 0.65625 -1.878906 0.5625 -2.421875 L 2.75 -2.71875 C 2.851562 -2.320312 3.046875 -2.019531 3.328125 -1.8125 C 3.609375 -1.613281 3.976562 -1.515625 4.4375 -1.515625 C 4.882812 -1.515625 5.234375 -1.597656 5.484375 -1.765625 C 5.742188 -1.929688 5.875 -2.144531 5.875 -2.40625 C 5.875 -2.632812 5.78125 -2.816406 5.59375 -2.953125 C 5.40625 -3.097656 5.128906 -3.210938 4.765625 -3.296875 L 3.28125 -3.59375 C 2.445312 -3.757812 1.820312 -4.046875 1.40625 -4.453125 C 0.988281 -4.867188 0.78125 -5.398438 0.78125 -6.046875 C 0.78125 -6.585938 0.929688 -7.054688 1.234375 -7.453125 C 1.535156 -7.859375 1.957031 -8.171875 2.5 -8.390625 C 3.039062 -8.609375 3.671875 -8.71875 4.390625 -8.71875 C 5.085938 -8.71875 5.691406 -8.617188 6.203125 -8.421875 C 6.710938 -8.222656 7.117188 -7.941406 7.421875 -7.578125 C 7.734375 -7.210938 7.929688 -6.785156 8.015625 -6.296875 L 5.9375 -6 C 5.863281 -6.3125 5.703125 -6.5625 5.453125 -6.75 C 5.203125 -6.945312 4.863281 -7.046875 4.4375 -7.046875 C 4.050781 -7.046875 3.734375 -6.960938 3.484375 -6.796875 C 3.234375 -6.640625 3.109375 -6.429688 3.109375 -6.171875 C 3.109375 -5.953125 3.191406 -5.769531 3.359375 -5.625 C 3.535156 -5.476562 3.816406 -5.363281 4.203125 -5.28125 L 5.765625 -4.96875 C 6.597656 -4.800781 7.21875 -4.523438 7.625 -4.140625 C 8.03125 -3.765625 8.234375 -3.265625 8.234375 -2.640625 C 8.234375 -2.078125 8.070312 -1.582031 7.75 -1.15625 C 7.425781 -0.738281 6.972656 -0.410156 6.390625 -0.171875 C 5.816406 0.0546875 5.148438 0.171875 4.390625 0.171875 Z M 4.390625 0.171875 "/></g></g></g><g fill="#ffffff" fill-opacity="1"><g transform="translate(24.483506, 15.897474)"><g><path d="M 0.953125 0 L 0.953125 -8.59375 L 3.125 -8.59375 L 3.21875 -6.5 L 3.0625 -6.5 C 3.195312 -7.019531 3.394531 -7.441406 3.65625 -7.765625 C 3.914062 -8.097656 4.222656 -8.34375 4.578125 -8.5 C 4.929688 -8.65625 5.300781 -8.734375 5.6875 -8.734375 C 6.3125 -8.734375 6.820312 -8.535156 7.21875 -8.140625 C 7.625 -7.753906 7.910156 -7.171875 8.078125 -6.390625 L 7.8125 -6.390625 C 7.925781 -6.921875 8.128906 -7.359375 8.421875 -7.703125 C 8.710938 -8.046875 9.054688 -8.300781 9.453125 -8.46875 C 9.847656 -8.644531 10.269531 -8.734375 10.71875 -8.734375 C 11.25 -8.734375 11.722656 -8.613281 12.140625 -8.375 C 12.554688 -8.144531 12.882812 -7.8125 13.125 -7.375 C 13.363281 -6.9375 13.484375 -6.40625 13.484375 -5.78125 L 13.484375 0 L 11.15625 0 L 11.15625 -5.328125 C 11.15625 -5.816406 11.019531 -6.179688 10.75 -6.421875 C 10.488281 -6.671875 10.164062 -6.796875 9.78125 -6.796875 C 9.488281 -6.796875 9.234375 -6.726562 9.015625 -6.59375 C 8.796875 -6.46875 8.628906 -6.289062 8.515625 -6.0625 C 8.398438 -5.84375 8.34375 -5.578125 8.34375 -5.265625 L 8.34375 0 L 6.09375 0 L 6.09375 -5.40625 C 6.09375 -5.820312 5.96875 -6.15625 5.71875 -6.40625 C 5.46875 -6.664062 5.140625 -6.796875 4.734375 -6.796875 C 4.460938 -6.796875 4.21875 -6.734375 4 -6.609375 C 3.78125 -6.484375 3.601562 -6.300781 3.46875 -6.0625 C 3.34375 -5.820312 3.28125 -5.523438 3.28125 -5.171875 L 3.28125 0 Z M 0.953125 0 "/></g></g></g><g fill="#ffffff" fill-opacity="1"><g transform="translate(38.921427, 15.897474)"><g><path d="M 4.84375 0.171875 C 3.96875 0.171875 3.210938 -0.0078125 2.578125 -0.375 C 1.941406 -0.738281 1.453125 -1.25 1.109375 -1.90625 C 0.765625 -2.570312 0.59375 -3.351562 0.59375 -4.25 C 0.59375 -5.144531 0.765625 -5.925781 1.109375 -6.59375 C 1.453125 -7.257812 1.929688 -7.78125 2.546875 -8.15625 C 3.171875 -8.53125 3.898438 -8.71875 4.734375 -8.71875 C 5.316406 -8.71875 5.851562 -8.625 6.34375 -8.4375 C 6.832031 -8.25 7.257812 -7.972656 7.625 -7.609375 C 8 -7.242188 8.289062 -6.785156 8.5 -6.234375 C 8.707031 -5.691406 8.8125 -5.0625 8.8125 -4.34375 L 8.8125 -3.703125 L 1.515625 -3.703125 L 1.515625 -5.15625 L 7.6875 -5.15625 L 6.59375 -4.78125 C 6.59375 -5.226562 6.519531 -5.613281 6.375 -5.9375 C 6.238281 -6.257812 6.035156 -6.507812 5.765625 -6.6875 C 5.492188 -6.875 5.160156 -6.96875 4.765625 -6.96875 C 4.359375 -6.96875 4.015625 -6.875 3.734375 -6.6875 C 3.460938 -6.507812 3.25 -6.257812 3.09375 -5.9375 C 2.945312 -5.625 2.875 -5.265625 2.875 -4.859375 L 2.875 -3.828125 C 2.875 -3.347656 2.957031 -2.9375 3.125 -2.59375 C 3.289062 -2.257812 3.523438 -2.003906 3.828125 -1.828125 C 4.128906 -1.660156 4.484375 -1.578125 4.890625 -1.578125 C 5.171875 -1.578125 5.421875 -1.613281 5.640625 -1.6875 C 5.867188 -1.769531 6.0625 -1.882812 6.21875 -2.03125 C 6.375 -2.1875 6.492188 -2.378906 6.578125 -2.609375 L 8.6875 -2.296875 C 8.550781 -1.804688 8.304688 -1.375 7.953125 -1 C 7.609375 -0.625 7.171875 -0.332031 6.640625 -0.125 C 6.117188 0.0703125 5.519531 0.171875 4.84375 0.171875 Z M 4.84375 0.171875 "/></g></g></g><g fill="#ffffff" fill-opacity="1"><g transform="translate(48.292451, 15.897474)"><g><path d="M 0.953125 0 L 0.953125 -8.59375 L 3.125 -8.59375 L 3.21875 -6.5 L 3.0625 -6.5 C 3.195312 -7.019531 3.394531 -7.441406 3.65625 -7.765625 C 3.914062 -8.097656 4.222656 -8.34375 4.578125 -8.5 C 4.929688 -8.65625 5.300781 -8.734375 5.6875 -8.734375 C 6.3125 -8.734375 6.820312 -8.535156 7.21875 -8.140625 C 7.625 -7.753906 7.910156 -7.171875 8.078125 -6.390625 L 7.8125 -6.390625 C 7.925781 -6.921875 8.128906 -7.359375 8.421875 -7.703125 C 8.710938 -8.046875 9.054688 -8.300781 9.453125 -8.46875 C 9.847656 -8.644531 10.269531 -8.734375 10.71875 -8.734375 C 11.25 -8.734375 11.722656 -8.613281 12.140625 -8.375 C 12.554688 -8.144531 12.882812 -7.8125 13.125 -7.375 C 13.363281 -6.9375 13.484375 -6.40625 13.484375 -5.78125 L 13.484375 0 L 11.15625 0 L 11.15625 -5.328125 C 11.15625 -5.816406 11.019531 -6.179688 10.75 -6.421875 C 10.488281 -6.671875 10.164062 -6.796875 9.78125 -6.796875 C 9.488281 -6.796875 9.234375 -6.726562 9.015625 -6.59375 C 8.796875 -6.46875 8.628906 -6.289062 8.515625 -6.0625 C 8.398438 -5.84375 8.34375 -5.578125 8.34375 -5.265625 L 8.34375 0 L 6.09375 0 L 6.09375 -5.40625 C 6.09375 -5.820312 5.96875 -6.15625 5.71875 -6.40625 C 5.46875 -6.664062 5.140625 -6.796875 4.734375 -6.796875 C 4.460938 -6.796875 4.21875 -6.734375 4 -6.609375 C 3.78125 -6.484375 3.601562 -6.300781 3.46875 -6.0625 C 3.34375 -5.820312 3.28125 -5.523438 3.28125 -5.171875 L 3.28125 0 Z M 0.953125 0 "/></g></g></g></g></g><g transform="matrix(1, 0, 0, 1, 38, 21)"><g clip-path="url(#404a747655)"><g fill="#d8d8d8" fill-opacity="1"><g transform="translate(0.613747, 9.064476)"><g><path d="M 2.25 0.109375 C 1.925781 0.109375 1.632812 0.0625 1.375 -0.03125 C 1.125 -0.132812 0.914062 -0.28125 0.75 -0.46875 C 0.582031 -0.664062 0.476562 -0.910156 0.4375 -1.203125 L 1.15625 -1.328125 C 1.21875 -1.066406 1.335938 -0.875 1.515625 -0.75 C 1.703125 -0.625 1.941406 -0.5625 2.234375 -0.5625 C 2.566406 -0.5625 2.828125 -0.628906 3.015625 -0.765625 C 3.210938 -0.910156 3.3125 -1.078125 3.3125 -1.265625 C 3.3125 -1.429688 3.25 -1.566406 3.125 -1.671875 C 3.007812 -1.785156 2.84375 -1.867188 2.625 -1.921875 L 1.84375 -2.109375 C 1.414062 -2.203125 1.09375 -2.359375 0.875 -2.578125 C 0.664062 -2.796875 0.5625 -3.066406 0.5625 -3.390625 C 0.5625 -3.660156 0.632812 -3.898438 0.78125 -4.109375 C 0.9375 -4.316406 1.144531 -4.476562 1.40625 -4.59375 C 1.664062 -4.707031 1.960938 -4.765625 2.296875 -4.765625 C 2.617188 -4.765625 2.894531 -4.710938 3.125 -4.609375 C 3.363281 -4.515625 3.550781 -4.375 3.6875 -4.1875 C 3.832031 -4.007812 3.9375 -3.800781 4 -3.5625 L 3.296875 -3.421875 C 3.253906 -3.597656 3.148438 -3.757812 2.984375 -3.90625 C 2.828125 -4.050781 2.597656 -4.125 2.296875 -4.125 C 2.015625 -4.125 1.78125 -4.054688 1.59375 -3.921875 C 1.414062 -3.796875 1.328125 -3.632812 1.328125 -3.4375 C 1.328125 -3.257812 1.390625 -3.117188 1.515625 -3.015625 C 1.648438 -2.910156 1.847656 -2.828125 2.109375 -2.765625 L 2.828125 -2.59375 C 3.253906 -2.488281 3.570312 -2.332031 3.78125 -2.125 C 3.988281 -1.914062 4.09375 -1.644531 4.09375 -1.3125 C 4.09375 -1.03125 4.015625 -0.785156 3.859375 -0.578125 C 3.703125 -0.367188 3.484375 -0.203125 3.203125 -0.078125 C 2.929688 0.046875 2.613281 0.109375 2.25 0.109375 Z M 2.25 0.109375 "/></g></g></g><g fill="#d8d8d8" fill-opacity="1"><g transform="translate(6.792969, 9.064476)"><g><path d="M 2.53125 -4.703125 L 2.53125 -4.046875 L 0.078125 -4.046875 L 0.078125 -4.703125 Z M 0.8125 -5.859375 L 1.578125 -5.859375 L 1.578125 -1.203125 C 1.578125 -0.992188 1.617188 -0.84375 1.703125 -0.75 C 1.785156 -0.664062 1.925781 -0.625 2.125 -0.625 C 2.175781 -0.625 2.238281 -0.625 2.3125 -0.625 C 2.382812 -0.632812 2.453125 -0.644531 2.515625 -0.65625 L 2.640625 -0.015625 C 2.554688 0.00390625 2.460938 0.0195312 2.359375 0.03125 C 2.265625 0.0390625 2.175781 0.046875 2.09375 0.046875 C 1.6875 0.046875 1.367188 -0.0546875 1.140625 -0.265625 C 0.921875 -0.472656 0.8125 -0.765625 0.8125 -1.140625 Z M 0.8125 -5.859375 "/></g></g></g><g fill="#d8d8d8" fill-opacity="1"><g transform="translate(11.293394, 9.064476)"><g><path d="M 2.265625 0.0625 C 1.941406 0.0625 1.660156 0 1.421875 -0.125 C 1.179688 -0.257812 0.988281 -0.457031 0.84375 -0.71875 C 0.707031 -0.988281 0.640625 -1.328125 0.640625 -1.734375 L 0.640625 -4.703125 L 1.40625 -4.703125 L 1.40625 -1.796875 C 1.40625 -1.421875 1.5 -1.128906 1.6875 -0.921875 C 1.875 -0.722656 2.132812 -0.625 2.46875 -0.625 C 2.695312 -0.625 2.898438 -0.671875 3.078125 -0.765625 C 3.253906 -0.859375 3.394531 -1 3.5 -1.1875 C 3.613281 -1.382812 3.671875 -1.625 3.671875 -1.90625 L 3.671875 -4.703125 L 4.421875 -4.703125 L 4.421875 0 L 3.6875 0 L 3.6875 -1.140625 L 3.8125 -1.140625 C 3.664062 -0.703125 3.457031 -0.390625 3.1875 -0.203125 C 2.914062 -0.0234375 2.609375 0.0625 2.265625 0.0625 Z M 2.265625 0.0625 "/></g></g></g><g fill="#d8d8d8" fill-opacity="1"><g transform="translate(18.043577, 9.064476)"><g><path d="M 2.40625 0.09375 C 2.019531 0.09375 1.675781 -0.00390625 1.375 -0.203125 C 1.070312 -0.398438 0.832031 -0.679688 0.65625 -1.046875 C 0.488281 -1.410156 0.40625 -1.84375 0.40625 -2.34375 C 0.40625 -2.832031 0.488281 -3.257812 0.65625 -3.625 C 0.832031 -3.988281 1.070312 -4.269531 1.375 -4.46875 C 1.675781 -4.664062 2.019531 -4.765625 2.40625 -4.765625 C 2.695312 -4.765625 2.929688 -4.71875 3.109375 -4.625 C 3.296875 -4.53125 3.441406 -4.421875 3.546875 -4.296875 C 3.648438 -4.171875 3.734375 -4.054688 3.796875 -3.953125 L 3.84375 -3.953125 L 3.84375 -6.34375 L 4.609375 -6.34375 L 4.609375 0 L 3.875 0 L 3.875 -0.71875 L 3.8125 -0.71875 C 3.738281 -0.613281 3.644531 -0.492188 3.53125 -0.359375 C 3.425781 -0.234375 3.28125 -0.125 3.09375 -0.03125 C 2.914062 0.0507812 2.6875 0.09375 2.40625 0.09375 Z M 2.53125 -0.578125 C 2.8125 -0.578125 3.050781 -0.648438 3.25 -0.796875 C 3.457031 -0.953125 3.613281 -1.160156 3.71875 -1.421875 C 3.820312 -1.691406 3.875 -2 3.875 -2.34375 C 3.875 -2.695312 3.820312 -3.003906 3.71875 -3.265625 C 3.613281 -3.523438 3.457031 -3.726562 3.25 -3.875 C 3.050781 -4.019531 2.8125 -4.09375 2.53125 -4.09375 C 2.238281 -4.09375 1.988281 -4.015625 1.78125 -3.859375 C 1.582031 -3.710938 1.429688 -3.507812 1.328125 -3.25 C 1.222656 -2.988281 1.171875 -2.6875 1.171875 -2.34375 C 1.171875 -2.007812 1.222656 -1.707031 1.328125 -1.4375 C 1.429688 -1.164062 1.582031 -0.953125 1.78125 -0.796875 C 1.988281 -0.648438 2.238281 -0.578125 2.53125 -0.578125 Z M 2.53125 -0.578125 "/></g></g></g><g fill="#d8d8d8" fill-opacity="1"><g transform="translate(24.972718, 9.064476)"><g><path d="M 0.640625 0 L 0.640625 -4.703125 L 1.40625 -4.703125 L 1.40625 0 Z M 1.015625 -5.5 C 0.867188 -5.5 0.742188 -5.546875 0.640625 -5.640625 C 0.546875 -5.742188 0.5 -5.863281 0.5 -6 C 0.5 -6.144531 0.546875 -6.265625 0.640625 -6.359375 C 0.742188 -6.460938 0.867188 -6.515625 1.015625 -6.515625 C 1.160156 -6.515625 1.285156 -6.460938 1.390625 -6.359375 C 1.492188 -6.265625 1.546875 -6.144531 1.546875 -6 C 1.546875 -5.863281 1.492188 -5.742188 1.390625 -5.640625 C 1.285156 -5.546875 1.160156 -5.5 1.015625 -5.5 Z M 1.015625 -5.5 "/></g></g></g><g fill="#d8d8d8" fill-opacity="1"><g transform="translate(28.693398, 9.064476)"><g><path d="M 2.5625 0.109375 C 2.132812 0.109375 1.757812 0.0078125 1.4375 -0.1875 C 1.113281 -0.394531 0.859375 -0.679688 0.671875 -1.046875 C 0.492188 -1.421875 0.40625 -1.847656 0.40625 -2.328125 C 0.40625 -2.816406 0.492188 -3.242188 0.671875 -3.609375 C 0.859375 -3.972656 1.113281 -4.253906 1.4375 -4.453125 C 1.757812 -4.660156 2.132812 -4.765625 2.5625 -4.765625 C 2.988281 -4.765625 3.363281 -4.660156 3.6875 -4.453125 C 4.007812 -4.253906 4.257812 -3.972656 4.4375 -3.609375 C 4.625 -3.242188 4.71875 -2.816406 4.71875 -2.328125 C 4.71875 -1.847656 4.625 -1.421875 4.4375 -1.046875 C 4.257812 -0.679688 4.007812 -0.394531 3.6875 -0.1875 C 3.363281 0.0078125 2.988281 0.109375 2.5625 0.109375 Z M 2.5625 -0.578125 C 2.875 -0.578125 3.128906 -0.65625 3.328125 -0.8125 C 3.535156 -0.96875 3.691406 -1.175781 3.796875 -1.4375 C 3.898438 -1.707031 3.953125 -2.003906 3.953125 -2.328125 C 3.953125 -2.648438 3.898438 -2.941406 3.796875 -3.203125 C 3.691406 -3.472656 3.535156 -3.6875 3.328125 -3.84375 C 3.128906 -4.007812 2.875 -4.09375 2.5625 -4.09375 C 2.25 -4.09375 1.988281 -4.007812 1.78125 -3.84375 C 1.582031 -3.6875 1.429688 -3.472656 1.328125 -3.203125 C 1.222656 -2.941406 1.171875 -2.648438 1.171875 -2.328125 C 1.171875 -2.003906 1.222656 -1.707031 1.328125 -1.4375 C 1.429688 -1.175781 1.582031 -0.96875 1.78125 -0.8125 C 1.988281 -0.65625 2.25 -0.578125 2.5625 -0.578125 Z M 2.5625 -0.578125 "/></g></g></g></g></g><g clip-path="url(#b0e5493051)"><g clip-path="url(#e363d5833b)"><path fill="url(#075f0dbed9)" d="M 2.378906 34.824219 L 2.378906 1.761719 L 33.71875 1.761719 L 33.71875 34.824219 Z M 2.378906 34.824219 " fill-rule="nonzero"/></g></g></svg>