<svg xmlns="http://www.w3.org/2000/svg" xmlns:xlink="http://www.w3.org/1999/xlink" width="160" zoomAndPan="magnify" viewBox="0 0 120 48" height="64" preserveAspectRatio="xMidYMid meet" version="1.0"><defs><g/><clipPath id="5ebe9c5ddf"><path d="M 0.183594 3 L 5 3 L 5 9 L 0.183594 9 Z M 0.183594 3 " clip-rule="nonzero"/></clipPath><clipPath id="87b0723e00"><rect x="0" width="33" y="0" height="11"/></clipPath><clipPath id="c0ed434041"><path d="M 21.027344 8.824219 L 49.453125 8.824219 L 49.453125 38.210938 L 21.027344 38.210938 Z M 21.027344 8.824219 " clip-rule="nonzero"/></clipPath><clipPath id="833ab6daa8"><path d="M 36.015625 8.835938 C 37.199219 8.90625 38.238281 9.554688 38.363281 10.347656 C 38.476562 11.242188 37.496094 11.972656 36.175781 11.917969 C 34.835938 11.894531 33.769531 11.09375 33.796875 10.1875 C 33.824219 9.386719 34.820312 8.808594 36.015625 8.835938 M 40.074219 35.820312 C 41.035156 35.667969 41.628906 36.050781 41.425781 36.632812 C 41.222656 37.132812 40.363281 37.65625 39.511719 37.835938 C 38.617188 37.984375 37.953125 37.71875 38.058594 37.191406 C 38.15625 36.585938 39.0625 35.953125 40.074219 35.820312 Z M 43.839844 29.617188 C 44.015625 29.507812 44.195312 29.414062 44.378906 29.339844 C 45.046875 28.753906 45.574219 27.914062 45.851562 26.988281 C 46.136719 25.964844 46.105469 24.910156 45.773438 24.039062 C 45.777344 24.046875 45.777344 24.046875 45.78125 24.046875 C 45.191406 23.253906 44.914062 22.101562 45.136719 20.976562 C 45.433594 19.277344 46.714844 18.445312 47.917969 19.050781 C 48.9375 19.632812 49.5625 21.261719 49.410156 22.761719 C 49.261719 23.761719 48.785156 24.539062 48.164062 24.859375 C 48.167969 24.859375 48.167969 24.859375 48.171875 24.859375 C 47.632812 25.40625 47.167969 26.269531 46.894531 27.238281 C 46.738281 27.765625 46.652344 28.285156 46.636719 28.761719 C 46.574219 29.835938 46.910156 29.695312 47.019531 30.445312 C 47.085938 31.082031 46.84375 31.882812 46.332031 32.636719 C 45.605469 33.660156 44.429688 34.453125 43.414062 34.507812 C 41.203125 34.433594 42.390625 32.65625 41.292969 31.4375 C 41.019531 31.132812 40.671875 30.867188 40.257812 30.65625 C 39.769531 30.417969 39.230469 30.265625 38.664062 30.214844 C 36.6875 30.007812 35.273438 31.027344 34.726562 32.792969 C 34.574219 33.246094 34.539062 33.691406 34.585938 34.109375 C 34.617188 34.429688 34.992188 35.226562 34.992188 35.226562 C 35.683594 35.777344 35.960938 36.496094 35.652344 37.148438 C 35.1875 38 33.65625 38.390625 32.15625 38.121094 C 30.652344 37.765625 29.546875 36.796875 29.730469 35.851562 C 29.824219 35.417969 30.132812 35.054688 30.59375 34.800781 C 31.394531 34.328125 31.617188 34.632812 32.441406 33.796875 C 32.789062 33.421875 33.058594 32.960938 33.210938 32.4375 C 34.085938 29.375 31.332031 29.050781 32.023438 26.355469 C 32.523438 24.449219 34.535156 23.300781 36.496094 23.816406 C 36.496094 23.820312 36.496094 23.820312 36.5 23.820312 C 36.832031 23.898438 37.15625 24.027344 37.46875 24.203125 C 40 25.652344 38.121094 27.773438 41.082031 29.367188 C 41.957031 29.820312 42.949219 29.902344 43.847656 29.613281 C 43.839844 29.617188 43.839844 29.617188 43.839844 29.617188 Z M 30.148438 17.929688 C 31.613281 18.710938 32.917969 18.585938 34.046875 17.5625 C 35.167969 16.570312 34.703125 16.449219 35.441406 15.550781 C 35.820312 15.101562 36.375 14.769531 37.261719 14.578125 C 41.253906 13.886719 43.347656 20.0625 39.25 21.101562 C 38.164062 21.382812 37.375 21.246094 36.691406 20.855469 C 35.652344 20.265625 36.132812 20.171875 34.75 19.816406 C 33.191406 19.421875 32.007812 19.96875 31.066406 21.46875 C 30.707031 22.683594 29.75 23.632812 28.574219 23.9375 C 28.574219 23.9375 28.574219 23.9375 28.570312 23.9375 C 26.816406 24.421875 25.113281 23.316406 24.71875 21.515625 C 24.5 20.390625 24.839844 19.234375 25.542969 18.394531 C 26.648438 17.128906 27.132812 16.871094 27.390625 15.042969 C 27.484375 14.4375 27.445312 13.886719 27.257812 13.445312 C 26.976562 12.753906 26.789062 12.917969 26.394531 12.535156 C 26.054688 12.214844 25.933594 11.757812 26.113281 11.214844 C 26.488281 10.238281 27.863281 9.269531 29.242188 8.945312 C 30.71875 8.695312 31.839844 9.265625 31.714844 10.324219 C 31.667969 10.746094 31.460938 11.171875 31.121094 11.5625 C 30.355469 12.472656 29.984375 12.175781 29.285156 13.394531 C 29.027344 13.859375 28.859375 14.378906 28.8125 14.914062 C 28.699219 16.429688 29.148438 17.039062 30.148438 17.929688 Z M 23.984375 26.148438 C 25.488281 26.226562 26.875 27.726562 26.992188 29.433594 C 27.152344 31.058594 26.0625 32.109375 24.660156 31.863281 C 23.394531 31.570312 22.234375 30.222656 21.972656 28.773438 C 21.773438 27.25 22.628906 26.039062 23.984375 26.148438 Z M 22.84375 14.503906 C 23.679688 14.257812 24.253906 14.894531 24.0625 15.96875 C 23.90625 17.09375 23.007812 18.148438 22.117188 18.289062 C 21.324219 18.433594 20.894531 17.703125 21.105469 16.679688 C 21.347656 15.71875 22.101562 14.761719 22.84375 14.503906 Z M 44.132812 12.511719 C 44.902344 12.722656 45.675781 13.503906 45.878906 14.273438 C 46.082031 15.105469 45.597656 15.675781 44.769531 15.523438 C 43.894531 15.390625 43.035156 14.527344 42.894531 13.640625 C 42.746094 12.808594 43.308594 12.3125 44.132812 12.511719 Z M 44.132812 12.511719 " clip-rule="nonzero"/></clipPath><linearGradient x1="435.933902" gradientTransform="matrix(0.0665731, 0, 0, -0.0657977, 20.894312, 96.881129)" y1="1331.207537" x2="-4.759576" gradientUnits="userSpaceOnUse" y2="898.535825" id="cd3efb0cc1"><stop stop-opacity="1" stop-color="rgb(5.099487%, 93.728638%, 96.469116%)" offset="0"/><stop stop-opacity="1" stop-color="rgb(5.099487%, 93.728638%, 96.469116%)" offset="0.125"/><stop stop-opacity="1" stop-color="rgb(5.099487%, 93.728638%, 96.469116%)" offset="0.1875"/><stop stop-opacity="1" stop-color="rgb(5.099487%, 93.728638%, 96.469116%)" offset="0.21875"/><stop stop-opacity="1" stop-color="rgb(5.099487%, 93.728638%, 96.469116%)" offset="0.226562"/><stop stop-opacity="1" stop-color="rgb(5.477905%, 93.351746%, 96.473694%)" offset="0.230469"/><stop stop-opacity="1" stop-color="rgb(5.857849%, 92.974854%, 96.478271%)" offset="0.234375"/><stop stop-opacity="1" stop-color="rgb(6.504822%, 92.329407%, 96.485901%)" offset="0.238281"/><stop stop-opacity="1" stop-color="rgb(7.151794%, 91.685486%, 96.495056%)" offset="0.242187"/><stop stop-opacity="1" stop-color="rgb(7.797241%, 91.041565%, 96.502686%)" offset="0.246094"/><stop stop-opacity="1" stop-color="rgb(8.444214%, 90.397644%, 96.511841%)" offset="0.25"/><stop stop-opacity="1" stop-color="rgb(9.091187%, 89.752197%, 96.51947%)" offset="0.253906"/><stop stop-opacity="1" stop-color="rgb(9.738159%, 89.108276%, 96.5271%)" offset="0.257812"/><stop stop-opacity="1" stop-color="rgb(10.385132%, 88.464355%, 96.534729%)" offset="0.261719"/><stop stop-opacity="1" stop-color="rgb(11.032104%, 87.820435%, 96.543884%)" offset="0.265625"/><stop stop-opacity="1" stop-color="rgb(11.679077%, 87.176514%, 96.551514%)" offset="0.269531"/><stop stop-opacity="1" stop-color="rgb(12.32605%, 86.532593%, 96.560669%)" offset="0.273438"/><stop stop-opacity="1" stop-color="rgb(12.973022%, 85.887146%, 96.568298%)" offset="0.277344"/><stop stop-opacity="1" stop-color="rgb(13.619995%, 85.243225%, 96.575928%)" offset="0.28125"/><stop stop-opacity="1" stop-color="rgb(14.266968%, 84.599304%, 96.583557%)" offset="0.285156"/><stop stop-opacity="1" stop-color="rgb(14.91394%, 83.955383%, 96.592712%)" offset="0.289062"/><stop stop-opacity="1" stop-color="rgb(15.559387%, 83.309937%, 96.600342%)" offset="0.292969"/><stop stop-opacity="1" stop-color="rgb(16.20636%, 82.666016%, 96.609497%)" offset="0.296875"/><stop stop-opacity="1" stop-color="rgb(16.853333%, 82.022095%, 96.617126%)" offset="0.300781"/><stop stop-opacity="1" stop-color="rgb(17.500305%, 81.378174%, 96.624756%)" offset="0.304688"/><stop stop-opacity="1" stop-color="rgb(18.147278%, 80.734253%, 96.632385%)" offset="0.308594"/><stop stop-opacity="1" stop-color="rgb(18.79425%, 80.090332%, 96.641541%)" offset="0.3125"/><stop stop-opacity="1" stop-color="rgb(19.441223%, 79.444885%, 96.64917%)" offset="0.316406"/><stop stop-opacity="1" stop-color="rgb(20.088196%, 78.800964%, 96.658325%)" offset="0.320312"/><stop stop-opacity="1" stop-color="rgb(20.735168%, 78.157043%, 96.665955%)" offset="0.324219"/><stop stop-opacity="1" stop-color="rgb(21.382141%, 77.513123%, 96.673584%)" offset="0.328125"/><stop stop-opacity="1" stop-color="rgb(22.029114%, 76.867676%, 96.681213%)" offset="0.332031"/><stop stop-opacity="1" stop-color="rgb(22.676086%, 76.223755%, 96.690369%)" offset="0.335938"/><stop stop-opacity="1" stop-color="rgb(23.321533%, 75.579834%, 96.697998%)" offset="0.339844"/><stop stop-opacity="1" stop-color="rgb(23.968506%, 74.935913%, 96.707153%)" offset="0.34375"/><stop stop-opacity="1" stop-color="rgb(24.615479%, 74.290466%, 96.714783%)" offset="0.347656"/><stop stop-opacity="1" stop-color="rgb(25.262451%, 73.646545%, 96.722412%)" offset="0.351562"/><stop stop-opacity="1" stop-color="rgb(25.909424%, 73.002625%, 96.730042%)" offset="0.355469"/><stop stop-opacity="1" stop-color="rgb(26.556396%, 72.358704%, 96.739197%)" offset="0.359375"/><stop stop-opacity="1" stop-color="rgb(27.203369%, 71.714783%, 96.746826%)" offset="0.363281"/><stop stop-opacity="1" stop-color="rgb(27.850342%, 71.070862%, 96.755981%)" offset="0.367188"/><stop stop-opacity="1" stop-color="rgb(28.497314%, 70.425415%, 96.763611%)" offset="0.371094"/><stop stop-opacity="1" stop-color="rgb(29.144287%, 69.781494%, 96.77124%)" offset="0.375"/><stop stop-opacity="1" stop-color="rgb(29.79126%, 69.137573%, 96.77887%)" offset="0.378906"/><stop stop-opacity="1" stop-color="rgb(30.438232%, 68.493652%, 96.788025%)" offset="0.382813"/><stop stop-opacity="1" stop-color="rgb(31.085205%, 67.848206%, 96.795654%)" offset="0.386719"/><stop stop-opacity="1" stop-color="rgb(31.732178%, 67.204285%, 96.80481%)" offset="0.390625"/><stop stop-opacity="1" stop-color="rgb(32.377625%, 66.560364%, 96.812439%)" offset="0.394531"/><stop stop-opacity="1" stop-color="rgb(33.024597%, 65.916443%, 96.821594%)" offset="0.398437"/><stop stop-opacity="1" stop-color="rgb(33.67157%, 65.272522%, 96.829224%)" offset="0.402344"/><stop stop-opacity="1" stop-color="rgb(34.318542%, 64.628601%, 96.836853%)" offset="0.40625"/><stop stop-opacity="1" stop-color="rgb(34.965515%, 63.983154%, 96.844482%)" offset="0.410156"/><stop stop-opacity="1" stop-color="rgb(35.612488%, 63.339233%, 96.853638%)" offset="0.414062"/><stop stop-opacity="1" stop-color="rgb(36.25946%, 62.695312%, 96.861267%)" offset="0.417969"/><stop stop-opacity="1" stop-color="rgb(36.906433%, 62.051392%, 96.870422%)" offset="0.421875"/><stop stop-opacity="1" stop-color="rgb(37.553406%, 61.405945%, 96.878052%)" offset="0.425781"/><stop stop-opacity="1" stop-color="rgb(38.200378%, 60.762024%, 96.885681%)" offset="0.429688"/><stop stop-opacity="1" stop-color="rgb(38.847351%, 60.118103%, 96.893311%)" offset="0.433594"/><stop stop-opacity="1" stop-color="rgb(39.494324%, 59.474182%, 96.902466%)" offset="0.4375"/><stop stop-opacity="1" stop-color="rgb(40.139771%, 58.830261%, 96.910095%)" offset="0.441406"/><stop stop-opacity="1" stop-color="rgb(40.786743%, 58.18634%, 96.91925%)" offset="0.445312"/><stop stop-opacity="1" stop-color="rgb(41.433716%, 57.540894%, 96.92688%)" offset="0.449219"/><stop stop-opacity="1" stop-color="rgb(42.080688%, 56.896973%, 96.934509%)" offset="0.453125"/><stop stop-opacity="1" stop-color="rgb(42.727661%, 56.253052%, 96.942139%)" offset="0.457031"/><stop stop-opacity="1" stop-color="rgb(43.374634%, 55.609131%, 96.951294%)" offset="0.460937"/><stop stop-opacity="1" stop-color="rgb(44.021606%, 54.963684%, 96.958923%)" offset="0.464844"/><stop stop-opacity="1" stop-color="rgb(44.668579%, 54.319763%, 96.968079%)" offset="0.46875"/><stop stop-opacity="1" stop-color="rgb(45.315552%, 53.675842%, 96.975708%)" offset="0.472656"/><stop stop-opacity="1" stop-color="rgb(45.962524%, 53.031921%, 96.983337%)" offset="0.476562"/><stop stop-opacity="1" stop-color="rgb(46.609497%, 52.388%, 96.990967%)" offset="0.480469"/><stop stop-opacity="1" stop-color="rgb(47.25647%, 51.74408%, 97.000122%)" offset="0.484375"/><stop stop-opacity="1" stop-color="rgb(47.901917%, 51.098633%, 97.007751%)" offset="0.488281"/><stop stop-opacity="1" stop-color="rgb(48.548889%, 50.454712%, 97.016907%)" offset="0.492187"/><stop stop-opacity="1" stop-color="rgb(49.195862%, 49.810791%, 97.024536%)" offset="0.496094"/><stop stop-opacity="1" stop-color="rgb(49.842834%, 49.16687%, 97.032166%)" offset="0.5"/><stop stop-opacity="1" stop-color="rgb(50.489807%, 48.521423%, 97.039795%)" offset="0.503906"/><stop stop-opacity="1" stop-color="rgb(51.13678%, 47.877502%, 97.04895%)" offset="0.507812"/><stop stop-opacity="1" stop-color="rgb(51.783752%, 47.233582%, 97.05658%)" offset="0.511719"/><stop stop-opacity="1" stop-color="rgb(52.430725%, 46.589661%, 97.065735%)" offset="0.515625"/><stop stop-opacity="1" stop-color="rgb(53.077698%, 45.94574%, 97.073364%)" offset="0.519531"/><stop stop-opacity="1" stop-color="rgb(53.72467%, 45.301819%, 97.080994%)" offset="0.523438"/><stop stop-opacity="1" stop-color="rgb(54.371643%, 44.656372%, 97.088623%)" offset="0.527344"/><stop stop-opacity="1" stop-color="rgb(55.018616%, 44.012451%, 97.097778%)" offset="0.53125"/><stop stop-opacity="1" stop-color="rgb(55.665588%, 43.36853%, 97.105408%)" offset="0.535156"/><stop stop-opacity="1" stop-color="rgb(56.312561%, 42.724609%, 97.114563%)" offset="0.539062"/><stop stop-opacity="1" stop-color="rgb(56.958008%, 42.079163%, 97.122192%)" offset="0.542969"/><stop stop-opacity="1" stop-color="rgb(57.60498%, 41.435242%, 97.129822%)" offset="0.546875"/><stop stop-opacity="1" stop-color="rgb(58.251953%, 40.791321%, 97.137451%)" offset="0.550781"/><stop stop-opacity="1" stop-color="rgb(58.898926%, 40.1474%, 97.146606%)" offset="0.554687"/><stop stop-opacity="1" stop-color="rgb(59.545898%, 39.503479%, 97.154236%)" offset="0.558594"/><stop stop-opacity="1" stop-color="rgb(60.192871%, 38.859558%, 97.163391%)" offset="0.5625"/><stop stop-opacity="1" stop-color="rgb(60.839844%, 38.214111%, 97.171021%)" offset="0.566406"/><stop stop-opacity="1" stop-color="rgb(61.486816%, 37.57019%, 97.17865%)" offset="0.570312"/><stop stop-opacity="1" stop-color="rgb(62.133789%, 36.92627%, 97.186279%)" offset="0.574219"/><stop stop-opacity="1" stop-color="rgb(62.780762%, 36.282349%, 97.195435%)" offset="0.578125"/><stop stop-opacity="1" stop-color="rgb(63.427734%, 35.636902%, 97.203064%)" offset="0.582031"/><stop stop-opacity="1" stop-color="rgb(64.074707%, 34.992981%, 97.212219%)" offset="0.585938"/><stop stop-opacity="1" stop-color="rgb(64.720154%, 34.34906%, 97.219849%)" offset="0.589844"/><stop stop-opacity="1" stop-color="rgb(65.367126%, 33.705139%, 97.227478%)" offset="0.59375"/><stop stop-opacity="1" stop-color="rgb(66.014099%, 33.061218%, 97.235107%)" offset="0.597656"/><stop stop-opacity="1" stop-color="rgb(66.661072%, 32.417297%, 97.244263%)" offset="0.601562"/><stop stop-opacity="1" stop-color="rgb(67.308044%, 31.771851%, 97.251892%)" offset="0.605469"/><stop stop-opacity="1" stop-color="rgb(67.955017%, 31.12793%, 97.261047%)" offset="0.609375"/><stop stop-opacity="1" stop-color="rgb(68.60199%, 30.484009%, 97.268677%)" offset="0.613281"/><stop stop-opacity="1" stop-color="rgb(69.248962%, 29.840088%, 97.276306%)" offset="0.617188"/><stop stop-opacity="1" stop-color="rgb(69.895935%, 29.194641%, 97.283936%)" offset="0.621094"/><stop stop-opacity="1" stop-color="rgb(70.542908%, 28.55072%, 97.293091%)" offset="0.625"/><stop stop-opacity="1" stop-color="rgb(71.18988%, 27.906799%, 97.30072%)" offset="0.628906"/><stop stop-opacity="1" stop-color="rgb(71.836853%, 27.262878%, 97.309875%)" offset="0.632812"/><stop stop-opacity="1" stop-color="rgb(72.4823%, 26.618958%, 97.317505%)" offset="0.636719"/><stop stop-opacity="1" stop-color="rgb(73.129272%, 25.975037%, 97.325134%)" offset="0.640625"/><stop stop-opacity="1" stop-color="rgb(73.776245%, 25.32959%, 97.332764%)" offset="0.644531"/><stop stop-opacity="1" stop-color="rgb(74.423218%, 24.685669%, 97.341919%)" offset="0.648438"/><stop stop-opacity="1" stop-color="rgb(75.07019%, 24.041748%, 97.349548%)" offset="0.652344"/><stop stop-opacity="1" stop-color="rgb(75.717163%, 23.397827%, 97.358704%)" offset="0.65625"/><stop stop-opacity="1" stop-color="rgb(76.364136%, 22.75238%, 97.366333%)" offset="0.660156"/><stop stop-opacity="1" stop-color="rgb(77.011108%, 22.108459%, 97.373962%)" offset="0.664062"/><stop stop-opacity="1" stop-color="rgb(77.658081%, 21.464539%, 97.381592%)" offset="0.667969"/><stop stop-opacity="1" stop-color="rgb(78.305054%, 20.820618%, 97.390747%)" offset="0.671875"/><stop stop-opacity="1" stop-color="rgb(78.952026%, 20.176697%, 97.398376%)" offset="0.675781"/><stop stop-opacity="1" stop-color="rgb(79.598999%, 19.532776%, 97.407532%)" offset="0.679688"/><stop stop-opacity="1" stop-color="rgb(80.244446%, 18.887329%, 97.415161%)" offset="0.683594"/><stop stop-opacity="1" stop-color="rgb(80.891418%, 18.243408%, 97.422791%)" offset="0.6875"/><stop stop-opacity="1" stop-color="rgb(81.538391%, 17.599487%, 97.43042%)" offset="0.691406"/><stop stop-opacity="1" stop-color="rgb(82.185364%, 16.955566%, 97.439575%)" offset="0.695312"/><stop stop-opacity="1" stop-color="rgb(82.832336%, 16.31012%, 97.447205%)" offset="0.699219"/><stop stop-opacity="1" stop-color="rgb(83.479309%, 15.666199%, 97.45636%)" offset="0.703125"/><stop stop-opacity="1" stop-color="rgb(84.126282%, 15.022278%, 97.463989%)" offset="0.707031"/><stop stop-opacity="1" stop-color="rgb(84.773254%, 14.378357%, 97.473145%)" offset="0.710938"/><stop stop-opacity="1" stop-color="rgb(85.420227%, 13.734436%, 97.480774%)" offset="0.714844"/><stop stop-opacity="1" stop-color="rgb(86.0672%, 13.090515%, 97.488403%)" offset="0.71875"/><stop stop-opacity="1" stop-color="rgb(86.714172%, 12.445068%, 97.496033%)" offset="0.722656"/><stop stop-opacity="1" stop-color="rgb(87.361145%, 11.801147%, 97.505188%)" offset="0.726562"/><stop stop-opacity="1" stop-color="rgb(88.008118%, 11.157227%, 97.512817%)" offset="0.730469"/><stop stop-opacity="1" stop-color="rgb(88.65509%, 10.513306%, 97.521973%)" offset="0.734375"/><stop stop-opacity="1" stop-color="rgb(89.300537%, 9.867859%, 97.529602%)" offset="0.738281"/><stop stop-opacity="1" stop-color="rgb(89.94751%, 9.223938%, 97.537231%)" offset="0.742188"/><stop stop-opacity="1" stop-color="rgb(90.594482%, 8.580017%, 97.544861%)" offset="0.746094"/><stop stop-opacity="1" stop-color="rgb(91.241455%, 7.936096%, 97.554016%)" offset="0.75"/><stop stop-opacity="1" stop-color="rgb(91.888428%, 7.292175%, 97.561646%)" offset="0.753906"/><stop stop-opacity="1" stop-color="rgb(92.5354%, 6.648254%, 97.570801%)" offset="0.757812"/><stop stop-opacity="1" stop-color="rgb(93.182373%, 6.002808%, 97.57843%)" offset="0.761719"/><stop stop-opacity="1" stop-color="rgb(93.829346%, 5.358887%, 97.58606%)" offset="0.765625"/><stop stop-opacity="1" stop-color="rgb(94.476318%, 4.714966%, 97.593689%)" offset="0.769531"/><stop stop-opacity="1" stop-color="rgb(95.123291%, 4.071045%, 97.602844%)" offset="0.773438"/><stop stop-opacity="1" stop-color="rgb(95.770264%, 3.425598%, 97.610474%)" offset="0.777344"/><stop stop-opacity="1" stop-color="rgb(96.417236%, 2.781677%, 97.619629%)" offset="0.78125"/><stop stop-opacity="1" stop-color="rgb(97.062683%, 2.137756%, 97.627258%)" offset="0.785156"/><stop stop-opacity="1" stop-color="rgb(97.709656%, 1.493835%, 97.634888%)" offset="0.789062"/><stop stop-opacity="1" stop-color="rgb(98.26355%, 0.941467%, 97.640991%)" offset="0.792969"/><stop stop-opacity="1" stop-color="rgb(98.81897%, 0.389099%, 97.648621%)" offset="0.796875"/><stop stop-opacity="1" stop-color="rgb(98.81897%, 0.389099%, 97.648621%)" offset="0.8125"/><stop stop-opacity="1" stop-color="rgb(98.81897%, 0.389099%, 97.648621%)" offset="0.875"/><stop stop-opacity="1" stop-color="rgb(98.81897%, 0.389099%, 97.648621%)" offset="1"/></linearGradient></defs><g fill="#020202" fill-opacity="1"><g transform="translate(52.745663, 24.212256)"><g><path d="M 4.8125 -7.71875 L 4.8125 -6.109375 L 0.125 -6.109375 L 0.125 -7.71875 Z M 1.265625 -9.609375 L 3.34375 -9.609375 L 3.34375 -2.28125 C 3.34375 -2.039062 3.394531 -1.863281 3.5 -1.75 C 3.613281 -1.632812 3.796875 -1.578125 4.046875 -1.578125 C 4.140625 -1.578125 4.257812 -1.582031 4.40625 -1.59375 C 4.5625 -1.613281 4.675781 -1.628906 4.75 -1.640625 L 4.984375 -0.0625 C 4.773438 -0.0078125 4.554688 0.0234375 4.328125 0.046875 C 4.097656 0.0664062 3.875 0.078125 3.65625 0.078125 C 2.863281 0.078125 2.265625 -0.101562 1.859375 -0.46875 C 1.460938 -0.832031 1.265625 -1.363281 1.265625 -2.0625 Z M 1.265625 -9.609375 "/></g></g></g><g fill="#020202" fill-opacity="1"><g transform="translate(57.994986, 24.212256)"><g><path d="M 3.046875 0.140625 C 2.554688 0.140625 2.113281 0.0546875 1.71875 -0.109375 C 1.332031 -0.285156 1.023438 -0.539062 0.796875 -0.875 C 0.578125 -1.21875 0.46875 -1.644531 0.46875 -2.15625 C 0.46875 -2.59375 0.546875 -2.953125 0.703125 -3.234375 C 0.859375 -3.523438 1.070312 -3.757812 1.34375 -3.9375 C 1.625 -4.113281 1.941406 -4.25 2.296875 -4.34375 C 2.648438 -4.4375 3.019531 -4.5 3.40625 -4.53125 C 3.851562 -4.582031 4.210938 -4.625 4.484375 -4.65625 C 4.765625 -4.695312 4.96875 -4.757812 5.09375 -4.84375 C 5.21875 -4.925781 5.28125 -5.054688 5.28125 -5.234375 L 5.28125 -5.265625 C 5.28125 -5.472656 5.234375 -5.648438 5.140625 -5.796875 C 5.046875 -5.953125 4.90625 -6.070312 4.71875 -6.15625 C 4.539062 -6.238281 4.320312 -6.28125 4.0625 -6.28125 C 3.789062 -6.28125 3.554688 -6.238281 3.359375 -6.15625 C 3.160156 -6.070312 3 -5.960938 2.875 -5.828125 C 2.757812 -5.691406 2.675781 -5.539062 2.625 -5.375 L 0.703125 -5.609375 C 0.804688 -6.078125 1.007812 -6.472656 1.3125 -6.796875 C 1.613281 -7.128906 2 -7.382812 2.46875 -7.5625 C 2.945312 -7.738281 3.484375 -7.828125 4.078125 -7.828125 C 4.515625 -7.828125 4.929688 -7.773438 5.328125 -7.671875 C 5.722656 -7.566406 6.070312 -7.40625 6.375 -7.1875 C 6.6875 -6.976562 6.925781 -6.707031 7.09375 -6.375 C 7.269531 -6.050781 7.359375 -5.660156 7.359375 -5.203125 L 7.359375 0 L 5.375 0 L 5.375 -1.078125 L 5.3125 -1.078125 C 5.1875 -0.835938 5.019531 -0.625 4.8125 -0.4375 C 4.601562 -0.25 4.351562 -0.101562 4.0625 0 C 3.78125 0.09375 3.441406 0.140625 3.046875 0.140625 Z M 3.640625 -1.3125 C 3.972656 -1.3125 4.257812 -1.375 4.5 -1.5 C 4.75 -1.632812 4.941406 -1.8125 5.078125 -2.03125 C 5.222656 -2.25 5.296875 -2.5 5.296875 -2.78125 L 5.296875 -3.59375 C 5.234375 -3.550781 5.140625 -3.507812 5.015625 -3.46875 C 4.898438 -3.4375 4.769531 -3.40625 4.625 -3.375 C 4.476562 -3.351562 4.328125 -3.328125 4.171875 -3.296875 C 4.023438 -3.273438 3.890625 -3.257812 3.765625 -3.25 C 3.503906 -3.207031 3.273438 -3.144531 3.078125 -3.0625 C 2.890625 -2.976562 2.738281 -2.867188 2.625 -2.734375 C 2.519531 -2.597656 2.46875 -2.425781 2.46875 -2.21875 C 2.46875 -2.019531 2.519531 -1.851562 2.625 -1.71875 C 2.726562 -1.59375 2.863281 -1.492188 3.03125 -1.421875 C 3.207031 -1.347656 3.410156 -1.3125 3.640625 -1.3125 Z M 3.640625 -1.3125 "/></g></g></g><g fill="#020202" fill-opacity="1"><g transform="translate(66.214957, 24.212256)"><g><path d="M 3.953125 0.15625 C 3.316406 0.15625 2.753906 0.0664062 2.265625 -0.109375 C 1.785156 -0.296875 1.390625 -0.5625 1.078125 -0.90625 C 0.773438 -1.257812 0.585938 -1.679688 0.515625 -2.171875 L 2.46875 -2.4375 C 2.5625 -2.082031 2.734375 -1.8125 2.984375 -1.625 C 3.234375 -1.445312 3.566406 -1.359375 3.984375 -1.359375 C 4.378906 -1.359375 4.691406 -1.429688 4.921875 -1.578125 C 5.148438 -1.734375 5.265625 -1.929688 5.265625 -2.171875 C 5.265625 -2.367188 5.179688 -2.53125 5.015625 -2.65625 C 4.847656 -2.78125 4.601562 -2.878906 4.28125 -2.953125 L 2.9375 -3.21875 C 2.195312 -3.375 1.640625 -3.632812 1.265625 -4 C 0.890625 -4.375 0.703125 -4.851562 0.703125 -5.4375 C 0.703125 -5.914062 0.835938 -6.332031 1.109375 -6.6875 C 1.378906 -7.050781 1.753906 -7.332031 2.234375 -7.53125 C 2.722656 -7.726562 3.296875 -7.828125 3.953125 -7.828125 C 4.578125 -7.828125 5.113281 -7.738281 5.5625 -7.5625 C 6.019531 -7.382812 6.390625 -7.128906 6.671875 -6.796875 C 6.953125 -6.472656 7.128906 -6.09375 7.203125 -5.65625 L 5.328125 -5.390625 C 5.265625 -5.671875 5.117188 -5.894531 4.890625 -6.0625 C 4.671875 -6.238281 4.367188 -6.328125 3.984375 -6.328125 C 3.640625 -6.328125 3.351562 -6.253906 3.125 -6.109375 C 2.894531 -5.960938 2.78125 -5.773438 2.78125 -5.546875 C 2.78125 -5.347656 2.859375 -5.179688 3.015625 -5.046875 C 3.171875 -4.910156 3.425781 -4.8125 3.78125 -4.75 L 5.171875 -4.46875 C 5.921875 -4.3125 6.476562 -4.0625 6.84375 -3.71875 C 7.21875 -3.375 7.40625 -2.925781 7.40625 -2.375 C 7.40625 -1.863281 7.253906 -1.414062 6.953125 -1.03125 C 6.660156 -0.65625 6.253906 -0.363281 5.734375 -0.15625 C 5.222656 0.0507812 4.628906 0.15625 3.953125 0.15625 Z M 3.953125 0.15625 "/></g></g></g><g fill="#020202" fill-opacity="1"><g transform="translate(74.106414, 24.212256)"><g><path d="M 0.859375 0 L 0.859375 -7.71875 L 2.8125 -7.71875 L 2.890625 -5.828125 L 2.75 -5.828125 C 2.863281 -6.296875 3.039062 -6.675781 3.28125 -6.96875 C 3.519531 -7.269531 3.796875 -7.488281 4.109375 -7.625 C 4.421875 -7.769531 4.753906 -7.84375 5.109375 -7.84375 C 5.671875 -7.84375 6.128906 -7.664062 6.484375 -7.3125 C 6.847656 -6.96875 7.101562 -6.441406 7.25 -5.734375 L 7.015625 -5.734375 C 7.117188 -6.210938 7.300781 -6.601562 7.5625 -6.90625 C 7.820312 -7.21875 8.128906 -7.453125 8.484375 -7.609375 C 8.835938 -7.765625 9.21875 -7.84375 9.625 -7.84375 C 10.101562 -7.84375 10.53125 -7.738281 10.90625 -7.53125 C 11.28125 -7.320312 11.570312 -7.019531 11.78125 -6.625 C 12 -6.226562 12.109375 -5.75 12.109375 -5.1875 L 12.109375 0 L 10.015625 0 L 10.015625 -4.78125 C 10.015625 -5.226562 9.894531 -5.554688 9.65625 -5.765625 C 9.425781 -5.984375 9.132812 -6.09375 8.78125 -6.09375 C 8.519531 -6.09375 8.289062 -6.035156 8.09375 -5.921875 C 7.90625 -5.816406 7.753906 -5.660156 7.640625 -5.453125 C 7.535156 -5.242188 7.484375 -5 7.484375 -4.71875 L 7.484375 0 L 5.46875 0 L 5.46875 -4.84375 C 5.46875 -5.226562 5.351562 -5.53125 5.125 -5.75 C 4.90625 -5.976562 4.613281 -6.09375 4.25 -6.09375 C 4.007812 -6.09375 3.789062 -6.035156 3.59375 -5.921875 C 3.394531 -5.816406 3.234375 -5.65625 3.109375 -5.4375 C 2.992188 -5.21875 2.9375 -4.953125 2.9375 -4.640625 L 2.9375 0 Z M 0.859375 0 "/></g></g></g><g fill="#020202" fill-opacity="1"><g transform="translate(87.072444, 24.212256)"><g><path d="M 4.359375 0.15625 C 3.566406 0.15625 2.882812 -0.00390625 2.3125 -0.328125 C 1.738281 -0.660156 1.296875 -1.125 0.984375 -1.71875 C 0.679688 -2.3125 0.53125 -3.015625 0.53125 -3.828125 C 0.53125 -4.617188 0.679688 -5.3125 0.984375 -5.90625 C 1.296875 -6.507812 1.726562 -6.976562 2.28125 -7.3125 C 2.84375 -7.65625 3.5 -7.828125 4.25 -7.828125 C 4.769531 -7.828125 5.25 -7.742188 5.6875 -7.578125 C 6.132812 -7.410156 6.523438 -7.160156 6.859375 -6.828125 C 7.191406 -6.503906 7.445312 -6.09375 7.625 -5.59375 C 7.8125 -5.101562 7.90625 -4.539062 7.90625 -3.90625 L 7.90625 -3.3125 L 1.359375 -3.3125 L 1.359375 -4.640625 L 6.890625 -4.640625 L 5.921875 -4.296875 C 5.921875 -4.691406 5.859375 -5.035156 5.734375 -5.328125 C 5.609375 -5.617188 5.421875 -5.84375 5.171875 -6 C 4.929688 -6.164062 4.632812 -6.25 4.28125 -6.25 C 3.914062 -6.25 3.609375 -6.164062 3.359375 -6 C 3.109375 -5.84375 2.914062 -5.617188 2.78125 -5.328125 C 2.644531 -5.046875 2.578125 -4.722656 2.578125 -4.359375 L 2.578125 -3.4375 C 2.578125 -3 2.648438 -2.628906 2.796875 -2.328125 C 2.953125 -2.023438 3.164062 -1.796875 3.4375 -1.640625 C 3.707031 -1.484375 4.023438 -1.40625 4.390625 -1.40625 C 4.640625 -1.40625 4.863281 -1.441406 5.0625 -1.515625 C 5.269531 -1.585938 5.441406 -1.691406 5.578125 -1.828125 C 5.722656 -1.972656 5.832031 -2.144531 5.90625 -2.34375 L 7.8125 -2.0625 C 7.6875 -1.613281 7.46875 -1.222656 7.15625 -0.890625 C 6.84375 -0.554688 6.445312 -0.296875 5.96875 -0.109375 C 5.5 0.0664062 4.960938 0.15625 4.359375 0.15625 Z M 4.359375 0.15625 "/></g></g></g><g fill="#020202" fill-opacity="1"><g transform="translate(95.488128, 24.212256)"><g><path d="M 0.859375 0 L 0.859375 -7.71875 L 2.8125 -7.71875 L 2.890625 -5.828125 L 2.75 -5.828125 C 2.863281 -6.296875 3.039062 -6.675781 3.28125 -6.96875 C 3.519531 -7.269531 3.796875 -7.488281 4.109375 -7.625 C 4.421875 -7.769531 4.753906 -7.84375 5.109375 -7.84375 C 5.671875 -7.84375 6.128906 -7.664062 6.484375 -7.3125 C 6.847656 -6.96875 7.101562 -6.441406 7.25 -5.734375 L 7.015625 -5.734375 C 7.117188 -6.210938 7.300781 -6.601562 7.5625 -6.90625 C 7.820312 -7.21875 8.128906 -7.453125 8.484375 -7.609375 C 8.835938 -7.765625 9.21875 -7.84375 9.625 -7.84375 C 10.101562 -7.84375 10.53125 -7.738281 10.90625 -7.53125 C 11.28125 -7.320312 11.570312 -7.019531 11.78125 -6.625 C 12 -6.226562 12.109375 -5.75 12.109375 -5.1875 L 12.109375 0 L 10.015625 0 L 10.015625 -4.78125 C 10.015625 -5.226562 9.894531 -5.554688 9.65625 -5.765625 C 9.425781 -5.984375 9.132812 -6.09375 8.78125 -6.09375 C 8.519531 -6.09375 8.289062 -6.035156 8.09375 -5.921875 C 7.90625 -5.816406 7.753906 -5.660156 7.640625 -5.453125 C 7.535156 -5.242188 7.484375 -5 7.484375 -4.71875 L 7.484375 0 L 5.46875 0 L 5.46875 -4.84375 C 5.46875 -5.226562 5.351562 -5.53125 5.125 -5.75 C 4.90625 -5.976562 4.613281 -6.09375 4.25 -6.09375 C 4.007812 -6.09375 3.789062 -6.035156 3.59375 -5.921875 C 3.394531 -5.816406 3.234375 -5.65625 3.109375 -5.4375 C 2.992188 -5.21875 2.9375 -4.953125 2.9375 -4.640625 L 2.9375 0 Z M 0.859375 0 "/></g></g></g><g transform="matrix(1, 0, 0, 1, 53, 26)"><g clip-path="url(#87b0723e00)"><g clip-path="url(#5ebe9c5ddf)"><g fill="#706e6e" fill-opacity="1"><g transform="translate(0.568142, 8.240825)"><g><path d="M 2.015625 0.09375 C 1.722656 0.09375 1.460938 0.0507812 1.234375 -0.03125 C 1.003906 -0.125 0.816406 -0.253906 0.671875 -0.421875 C 0.523438 -0.597656 0.429688 -0.816406 0.390625 -1.078125 L 1.03125 -1.203125 C 1.09375 -0.960938 1.207031 -0.785156 1.375 -0.671875 C 1.539062 -0.554688 1.753906 -0.5 2.015625 -0.5 C 2.304688 -0.5 2.539062 -0.5625 2.71875 -0.6875 C 2.894531 -0.8125 2.984375 -0.960938 2.984375 -1.140625 C 2.984375 -1.296875 2.925781 -1.421875 2.8125 -1.515625 C 2.707031 -1.609375 2.554688 -1.679688 2.359375 -1.734375 L 1.65625 -1.890625 C 1.269531 -1.984375 0.984375 -2.125 0.796875 -2.3125 C 0.609375 -2.507812 0.515625 -2.757812 0.515625 -3.0625 C 0.515625 -3.300781 0.578125 -3.507812 0.703125 -3.6875 C 0.835938 -3.875 1.019531 -4.019531 1.25 -4.125 C 1.488281 -4.238281 1.757812 -4.296875 2.0625 -4.296875 C 2.351562 -4.296875 2.601562 -4.25 2.8125 -4.15625 C 3.03125 -4.0625 3.203125 -3.929688 3.328125 -3.765625 C 3.453125 -3.609375 3.539062 -3.421875 3.59375 -3.203125 L 2.96875 -3.078125 C 2.925781 -3.242188 2.832031 -3.390625 2.6875 -3.515625 C 2.550781 -3.648438 2.347656 -3.71875 2.078125 -3.71875 C 1.816406 -3.71875 1.601562 -3.65625 1.4375 -3.53125 C 1.269531 -3.414062 1.1875 -3.269531 1.1875 -3.09375 C 1.1875 -2.9375 1.242188 -2.804688 1.359375 -2.703125 C 1.484375 -2.609375 1.660156 -2.535156 1.890625 -2.484375 L 2.546875 -2.328125 C 2.929688 -2.234375 3.21875 -2.09375 3.40625 -1.90625 C 3.59375 -1.71875 3.6875 -1.476562 3.6875 -1.1875 C 3.6875 -0.9375 3.613281 -0.710938 3.46875 -0.515625 C 3.332031 -0.328125 3.140625 -0.175781 2.890625 -0.0625 C 2.640625 0.0390625 2.347656 0.09375 2.015625 0.09375 Z M 2.015625 0.09375 "/></g></g></g></g><g fill="#706e6e" fill-opacity="1"><g transform="translate(6.117416, 8.240825)"><g><path d="M 2.28125 -4.234375 L 2.28125 -3.640625 L 0.078125 -3.640625 L 0.078125 -4.234375 Z M 0.734375 -5.265625 L 1.40625 -5.265625 L 1.40625 -1.078125 C 1.40625 -0.898438 1.441406 -0.769531 1.515625 -0.6875 C 1.597656 -0.601562 1.726562 -0.5625 1.90625 -0.5625 C 1.945312 -0.5625 2 -0.5625 2.0625 -0.5625 C 2.132812 -0.570312 2.203125 -0.582031 2.265625 -0.59375 L 2.375 -0.015625 C 2.300781 0.00390625 2.21875 0.0195312 2.125 0.03125 C 2.039062 0.0390625 1.957031 0.046875 1.875 0.046875 C 1.507812 0.046875 1.226562 -0.046875 1.03125 -0.234375 C 0.832031 -0.421875 0.734375 -0.6875 0.734375 -1.03125 Z M 0.734375 -5.265625 "/></g></g></g><g fill="#706e6e" fill-opacity="1"><g transform="translate(10.15904, 8.240825)"><g><path d="M 2.03125 0.0625 C 1.75 0.0625 1.5 0.00390625 1.28125 -0.109375 C 1.0625 -0.234375 0.890625 -0.414062 0.765625 -0.65625 C 0.640625 -0.894531 0.578125 -1.195312 0.578125 -1.5625 L 0.578125 -4.234375 L 1.265625 -4.234375 L 1.265625 -1.609375 C 1.265625 -1.273438 1.347656 -1.015625 1.515625 -0.828125 C 1.691406 -0.648438 1.925781 -0.5625 2.21875 -0.5625 C 2.425781 -0.5625 2.609375 -0.601562 2.765625 -0.6875 C 2.929688 -0.769531 3.0625 -0.894531 3.15625 -1.0625 C 3.25 -1.238281 3.296875 -1.453125 3.296875 -1.703125 L 3.296875 -4.234375 L 3.984375 -4.234375 L 3.984375 0 L 3.328125 0 L 3.328125 -1.03125 L 3.4375 -1.03125 C 3.300781 -0.632812 3.113281 -0.351562 2.875 -0.1875 C 2.632812 -0.0195312 2.351562 0.0625 2.03125 0.0625 Z M 2.03125 0.0625 "/></g></g></g><g fill="#706e6e" fill-opacity="1"><g transform="translate(16.221069, 8.240825)"><g><path d="M 2.171875 0.09375 C 1.816406 0.09375 1.503906 0.00390625 1.234375 -0.171875 C 0.960938 -0.359375 0.75 -0.613281 0.59375 -0.9375 C 0.445312 -1.269531 0.375 -1.660156 0.375 -2.109375 C 0.375 -2.546875 0.445312 -2.925781 0.59375 -3.25 C 0.75 -3.582031 0.960938 -3.835938 1.234375 -4.015625 C 1.503906 -4.203125 1.816406 -4.296875 2.171875 -4.296875 C 2.421875 -4.296875 2.628906 -4.253906 2.796875 -4.171875 C 2.960938 -4.085938 3.09375 -3.988281 3.1875 -3.875 C 3.28125 -3.757812 3.359375 -3.65625 3.421875 -3.5625 L 3.46875 -3.5625 L 3.46875 -5.703125 L 4.140625 -5.703125 L 4.140625 0 L 3.484375 0 L 3.484375 -0.65625 L 3.421875 -0.65625 C 3.359375 -0.550781 3.273438 -0.441406 3.171875 -0.328125 C 3.078125 -0.210938 2.945312 -0.113281 2.78125 -0.03125 C 2.625 0.0507812 2.421875 0.09375 2.171875 0.09375 Z M 2.265625 -0.515625 C 2.523438 -0.515625 2.742188 -0.582031 2.921875 -0.71875 C 3.109375 -0.851562 3.25 -1.039062 3.34375 -1.28125 C 3.4375 -1.519531 3.484375 -1.796875 3.484375 -2.109375 C 3.484375 -2.421875 3.4375 -2.691406 3.34375 -2.921875 C 3.25 -3.160156 3.109375 -3.347656 2.921875 -3.484375 C 2.742188 -3.617188 2.523438 -3.6875 2.265625 -3.6875 C 2.003906 -3.6875 1.785156 -3.617188 1.609375 -3.484375 C 1.429688 -3.347656 1.296875 -3.160156 1.203125 -2.921875 C 1.109375 -2.679688 1.0625 -2.410156 1.0625 -2.109375 C 1.0625 -1.804688 1.109375 -1.535156 1.203125 -1.296875 C 1.296875 -1.054688 1.429688 -0.863281 1.609375 -0.71875 C 1.796875 -0.582031 2.015625 -0.515625 2.265625 -0.515625 Z M 2.265625 -0.515625 "/></g></g></g><g fill="#706e6e" fill-opacity="1"><g transform="translate(22.443811, 8.240825)"><g><path d="M 0.578125 0 L 0.578125 -4.234375 L 1.265625 -4.234375 L 1.265625 0 Z M 0.921875 -4.953125 C 0.785156 -4.953125 0.671875 -4.992188 0.578125 -5.078125 C 0.484375 -5.171875 0.4375 -5.28125 0.4375 -5.40625 C 0.4375 -5.53125 0.484375 -5.632812 0.578125 -5.71875 C 0.671875 -5.8125 0.785156 -5.859375 0.921875 -5.859375 C 1.046875 -5.859375 1.15625 -5.8125 1.25 -5.71875 C 1.34375 -5.632812 1.390625 -5.53125 1.390625 -5.40625 C 1.390625 -5.28125 1.34375 -5.171875 1.25 -5.078125 C 1.15625 -4.992188 1.046875 -4.953125 0.921875 -4.953125 Z M 0.921875 -4.953125 "/></g></g></g><g fill="#706e6e" fill-opacity="1"><g transform="translate(25.785182, 8.240825)"><g><path d="M 2.3125 0.09375 C 1.925781 0.09375 1.585938 0.00390625 1.296875 -0.171875 C 1.003906 -0.359375 0.773438 -0.613281 0.609375 -0.9375 C 0.453125 -1.269531 0.375 -1.65625 0.375 -2.09375 C 0.375 -2.53125 0.453125 -2.910156 0.609375 -3.234375 C 0.773438 -3.566406 1.003906 -3.828125 1.296875 -4.015625 C 1.585938 -4.203125 1.925781 -4.296875 2.3125 -4.296875 C 2.695312 -4.296875 3.03125 -4.203125 3.3125 -4.015625 C 3.601562 -3.828125 3.832031 -3.566406 4 -3.234375 C 4.164062 -2.910156 4.25 -2.53125 4.25 -2.09375 C 4.25 -1.65625 4.164062 -1.269531 4 -0.9375 C 3.832031 -0.613281 3.601562 -0.359375 3.3125 -0.171875 C 3.03125 0.00390625 2.695312 0.09375 2.3125 0.09375 Z M 2.3125 -0.515625 C 2.59375 -0.515625 2.820312 -0.585938 3 -0.734375 C 3.1875 -0.878906 3.320312 -1.066406 3.40625 -1.296875 C 3.5 -1.535156 3.546875 -1.800781 3.546875 -2.09375 C 3.546875 -2.382812 3.5 -2.648438 3.40625 -2.890625 C 3.320312 -3.128906 3.1875 -3.320312 3 -3.46875 C 2.820312 -3.613281 2.59375 -3.6875 2.3125 -3.6875 C 2.03125 -3.6875 1.796875 -3.613281 1.609375 -3.46875 C 1.429688 -3.320312 1.296875 -3.128906 1.203125 -2.890625 C 1.109375 -2.648438 1.0625 -2.382812 1.0625 -2.09375 C 1.0625 -1.800781 1.109375 -1.535156 1.203125 -1.296875 C 1.296875 -1.066406 1.429688 -0.878906 1.609375 -0.734375 C 1.796875 -0.585938 2.03125 -0.515625 2.3125 -0.515625 Z M 2.3125 -0.515625 "/></g></g></g></g></g><g clip-path="url(#c0ed434041)"><g clip-path="url(#833ab6daa8)"><path fill="url(#cd3efb0cc1)" d="M 21.027344 38.210938 L 21.027344 8.824219 L 49.453125 8.824219 L 49.453125 38.210938 Z M 21.027344 38.210938 " fill-rule="nonzero"/></g></g></svg>